<?xml version="1.0" encoding="UTF-8" standalone="no"?>
<svg id="svg4178" xmlns:rdf="http://www.w3.org/1999/02/22-rdf-syntax-ns#" xmlns="http://www.w3.org/2000/svg" height="203" viewBox="0 0 1240 203" width="1240" fill="#FFA500" version="1.1" xmlns:cc="http://creativecommons.org/ns#" xmlns:dc="http://purl.org/dc/elements/1.1/">
<path id="path4190" d="m613.93 201.42c-0.72194-0.86988-4.0395-2.9323-7.3724-4.5831s-7.2499-4.408-8.7044-6.1271l-2.6445-3.1256-9.3555 4.6125c-21.708 10.702-40.454 9.2127-60.653-4.8199-7.08-4.92-17.2-1.6-17.2 5.64 0 3.5372-16.661 7.6868-23.467 5.8448-2.2179-0.60019-8.4765-1.2326-13.908-1.4054-5.4315-0.17279-10.32-0.75852-10.863-1.3016-1.6132-1.6132 0.12924-3.1617 3.5575-3.1617 3.9762 0 7.827-3.3983 11.101-9.7969 2.3459-4.5843 7.5782-10.237 12.538-13.544 1.9989-1.333 4.0533-1.5293 11-1.051l8.542 0.58811-2.6152-2.3483c-1.4384-1.2916-3.5681-3.7568-4.7327-5.4784s-3.1378-3.3603-4.3848-3.6416c-1.247-0.28132-4.5173-1.4196-7.2673-2.5294-2.75-1.1099-7.475-2.7266-10.5-3.5927-10.357-2.9654-13.262-8.0626-12.447-21.837 0.44618-7.5372-0.97659-12.419-4.8508-16.644l-2.2023-2.4015 4.1416 0.52817c2.2779 0.29049 5.8632 1.698 7.9673 3.1278s7.9856 3.9855 13.07 5.6793c9.9828 3.3258 9.1168 2.5041 14.951 14.186 1.864 3.732 2.37 6.3543 2.37 12.282 0 11.028 4.7556 18.754 16.839 27.358 4.0702 2.8982 3.9876 2.0772-0.36439-3.6224-8.0141-10.496-4.4812-30.647 6.26-35.706 3.5303-1.6627 4.288-2.5898 5.2548-6.4292 0.62132-2.4675 2.0022-5.7117 3.0686-7.2093l1.9389-2.7229-3.3352-1.9678c-1.8343-1.0823-5.4332-5.1237-7.9975-8.981-2.5643-3.8572-5.5628-7.2486-6.6632-7.5364-3.0076-0.78652-2.4178-3.1551 1.5369-6.1715 1.9458-1.4841 4.6982-4.575 6.1165-6.8687 4.0824-6.6021 9.3775-11.586 13.04-12.273 3.8758-0.72711 3.9785-1.0525 1.249-3.9579-1.4876-1.5835-2.4273-4.7833-3.3961-11.564-0.73666-5.1564-1.8394-10.65-2.4505-12.209-1.5852-4.0433-0.58932-4.9204 4.7611-4.1931 3.1032 0.42184 6.0928 0.11652 9.0179-0.92099 2.4-0.857 6.79-1.555 9.75-1.555h5.37v-3.8908c0-2.1399 0.89012-5.8524 1.978-8.25 1.1439-2.5209 1.9873-6.5583 2-9.574 0.0233-5.5309 2.6102-8.6662 5.3359-6.467 0.65235 0.52632 4.7159 1.4212 9.0302 1.9886 4.4143 0.58057 10 2.0988 12.776 3.4723l4.9317 2.4406 7.7242-7.9608c4.2483-4.3784 8.5117-8.8154 9.4742-9.8599s2.3125-1.8935 3-1.8866c2.1854 0.021795 20.33 17.088 21.25 19.988 0.81659 2.5729 2.5549 2.5311 5.9546-0.14317 2.2125-1.7404 4.287-2.1881 11.041-2.3827 4.5739-0.13183 8.768-0.51893 9.3202-0.86022 2.4947-1.5418 3.9201 0.65112 4.5068 6.9338 0.33081 3.5426 1.0747 7.3253 1.6531 8.4061 0.61818 1.1551 0.7868 4.2184 0.40909 7.4321l-0.64254 5.467 3.879-1.3826c5.6697-2.0209 7.1763-1.8385 17.708 2.1434l9.5579 3.6139-0.51602 8.6361c-0.51948 8.6939-2.1449 14.262-5.6756 19.444-1.0522 1.5442-1.7516 2.9514-1.5541 3.1271 0.1975 0.17573 2.2337 1.2646 4.5249 2.4198 4.5588 2.2984 6.6688 4.8496 10.813 13.075 1.5047 2.9859 3.3653 6.0585 4.1348 6.828 3.2522 3.2522 3.6005 5.211 1.096 6.1632-1.3037 0.49567-5.4331 4.3232-9.1763 8.5056-3.7433 4.1824-7.8697 7.8714-9.1698 8.1977-2.8559 0.71678-2.8404 0.40079-0.26235 5.3468 1.4147 2.7142 2.3546 7.0547 2.8757 13.281 0.82121 9.8113 0.51418 10.704-3.6898 10.734-1.2169 0.008-4.5919 0.87914-7.5 1.9349s-6.75 2.2165-8.5375 2.5795c-2.9627 0.60151-3.25 0.98717-3.25 4.3625 0 2.0364-0.68671 6.1632-1.526 9.1705-0.83931 3.0074-1.801 7.1739-2.1372 9.259l-0.61117 3.791-8.6128-0.5893c-4.7371-0.32411-10.075-0.81297-11.863-1.0864-6.3595-0.97261-3.1183 1.41 4.8388 3.5571 24.274 6.5498 45.837 4.2319 62.661-6.7356 6.3108-4.114 6.4623-4.802 1.2119-5.5062-13.133-1.7614-18.799-20.371-10.677-35.068 3.6111-6.5347 4.8586-11.994 3.3123-14.496-1.8277-2.9573 3.1632-0.72336 7.308 3.2711 2.5272 2.4355 6.9308 6.6814 9.7858 9.4354 8.5155 8.214 11.481 18.841 7.3909 26.484-1.9594 3.6612-0.47186 4.6422 2.2124 1.459 1.2132-1.4387 3.8007-3.1129 5.75-3.7206 3.5481-1.106 10.647-10.177 12.397-15.841 1.8608-6.0231 7.9925-10.337 16.66-11.721 5.58-0.89 11.89-4.89 11.89-7.53 0-2.8826 1.849-2.4354 2.6193 0.6334 2.0315 8.0942 0.95505 20.76-2.1996 25.881-5.8843 9.5515-9.6891 10.87-33.419 11.581-7.0002 0.20962-7.8538 0.48651-12.828 4.1609-5.9377 4.3865-6.1927 6.2571-0.41185 3.0216 11.472-6.4206 22.496-1.0285 29.73 14.542 4.2619 9.173 3.8776 9.4991-12.414 10.536-18.229 1.1602-24.273-1.6298-27.327-12.614l-1.327-4.773-5.4614 4.084c-15.65 11.703-53.315 17.858-64.487 10.537-1.36-0.9-2.47-1.39-2.47-1.11 0 0.95461-8.4734-2.8079-11.594-5.1483-4.1696-3.1268-5.8398-2.9289-8.876 1.0518-1.4481 1.8986-4.455 4.0913-6.8808 5.0178-2.3698 0.90502-5.5944 2.9875-7.1658 4.6277-3.2309 3.3723-4.6607 3.678-6.5507 1.4006zm4.9134-5.2878c1.4599-1.0282 4.5266-2.8168 6.815-3.9747 11.092-5.6127 13.382-12.123 7.9079-22.483-1.794-3.3952-4.2806-9.3231-5.5258-13.173-7.6656-23.701-9.4548-26.554-8.622-13.75 0.33196 5.1041 0.21589 6.7258-0.33999 4.75-0.46422-1.65-0.89727-4.4625-0.96235-6.25-0.10589-2.9088-1.932-4.7404-2.2433-2.25-0.0688 0.55-0.2375 1.45-0.375 2s-0.3952 5.8375-0.57267 11.75l-0.32268 10.75-0.55232-11c-0.58444-11.64-1.5729-13.548-3.6261-7l-1.2543 4 0.49755-6c0.27366-3.3 0.65407-6.5188 0.84537-7.1528 0.57757-1.9143-2.2524-5.196-2.8864-3.3472-16.677 48.628-16.639 51.29 0.8716 60.975 8.4302 4.6628 7.1611 4.3984 10.346 2.1556zm-132.26-5.6375c3.7005-1.9288 8.5738-5.0193 10.83-6.8678 5.9288-4.8582 11.548-7.6208 15.573-7.6557 3.0114-0.026 3.2477-0.18563 1.6494-1.1143-4.4138-2.5646-12.208-0.52524-18.362 4.8047-7.19 6.23-16.05 12.34-17.88 12.34-0.77 0-1.39 0.45-1.39 1 0 1.7821 2.7189 1.0708 9.5828-2.507zm88.059-1.6096c11.386-3.5167 12.057-4.7974 2.2049-4.2092-4.5908 0.27412-9.8007 0.94155-11.577 1.4832-3.9781 1.2127-4.8435 0.72295-5.6247-3.1833-0.33743-1.6871-2.0255-6.2845-3.7512-10.216-2.7122-6.1796-3.0583-7.9081-2.5524-12.748l0.58526-5.5994-6.3275 0.40291c-3.7586 0.23933-7.2293-0.0798-8.5489-0.78597-3.3799-1.8089-3.6204-0.48702-0.71139 3.9088 5.507 8.3217 4.9972 15.08-1.5536 20.592-4.9402 4.1569-8.7851 3.4298-8.7851-1.6613 0-2.2737-0.4961-5.7898-1.1024-7.8136-0.87891-2.9336-0.76594-4.8832 0.55719-9.616 2.1628-7.7364 2.3118-9.6413 0.79525-10.169-0.71785-0.24955-1.25 0.38572-1.25 1.4922 0 1.0597-0.89159 4.5182-1.9813 7.6856-1.5951 4.6362-1.7952 6.5893-1.0266 10.019 0.52512 2.3432 1.1527 5.7847 1.3946 7.6478 0.64927 5.0008 1.3239 6.1715 4.8853 8.4778 9.911 6.4181 30.911 8.45 44.37 4.293zm-25.957-6.5319c-0.35666-0.35665-0.38887-1.6828-0.0716-2.9469 0.31728-1.2641 0.0355-3.9388-0.62615-5.9436-1.625-4.9238 0.21207-7.1146 3.0519-3.6397 4.4672 5.4662 2.271 17.155-2.3542 12.53zm213.32 7.69c0-0.99147-3.5716-2.0939-12.897-3.9807-3.7857-0.76599-6.548-2.132-9.2529-4.5757-3.67-3.31-12.12-5.34-10.35-2.48 0.33992 0.55 1.2175 1 1.9501 1 0.73266 0 3.4955 1.7877 6.1397 3.9728 3.2637 2.697 6.4297 4.3022 9.8589 4.9988 10.251 2.0823 14.551 2.3981 14.551 1.0686zm-180.45-8.6006c7.0667-1.0526 8.8447-4.0495 17.466-29.44 4.389-12.925 7.9816-23.907 7.9836-24.405 0.009-2.2038-4.3227 3.3163-6.7475 8.5989-1.4658 3.1933-3.0214 5.806-3.457 5.806-1.3049 0-0.89022-1.2501 2.1564-6.5 3.75-6.47 8.05-15.29 8.05-16.53 0-2.1345-1.7522-0.75602-3.9027 3.0703-1.249 2.2224-5.9444 9.5722-10.434 16.333-4.4898 6.7608-8.7347 13.155-9.4332 14.209-1.1684 1.7638-1.2211 1.7172-0.65833-0.58299 0.3364-1.375 2.7079-5.5898 5.27-9.3662s6.4583-9.8682 8.6583-13.537c7.2855-12.151 9.7741-15.101 11.158-13.229 1.0077 1.3629 1.4243 1.4111 2.5242 0.29235 1.0938-1.1126 0.7234-1.7914-2.1827-4-6.1668-4.6868-9.0087-7.9536-9.6325-11.073-0.97864-4.8932-2.6592-5.6076-7.5922-3.2274-2.8359 1.3683-7.1371 2.2397-12.775 2.5883l-8.5 0.52556 7-1.4079c3.85-0.77434 7.7875-1.4434 8.75-1.4869 10.671-0.48172-2.5923-1.5207-15.75-1.2338-12.42 0.269-17.5 0.056-17.5-0.734 0-0.768 4.65-1.113 15-1.113 17.784 0 18.781-0.87439 4.25-3.7289l-10.75-2.1118 9.5 0.38642c5.225 0.21253 8.6 0.12846 7.5-0.18683-4.9572-1.4209-28.237-10.626-30.339-11.997-6.2098-4.0486-16.026 0.589-20.721 9.7897-1.3056 2.5585-3.8511 5.8127-5.6568 7.2317-3.7101 2.9156-4.0014 1.8257 3.4946 13.073 4.9187 7.3805 9.1313 9.3879 15.126 7.2079 9.3942-3.4166 51.508-14.676 54.737-14.634 3.8442 0.0495 0.52212 1.3399-12.64 4.9097-14.146 3.8366-38.429 11.469-43.73 13.744-5.4432 2.3366-8.2636 9.2942-10.044 24.778-0.3315 2.8824 11.196 8.5384 17.274 8.4754 7.6741-0.0796 12.192-2.8263 30.703-18.667 19.62-16.789 26.591-22.201 25.74-19.984-0.57646 1.5022-15.859 15.263-27.443 24.71-19.072 15.553-21.585 22.398-14.038 38.233l3.2076 6.7301 7.6651-0.5334c4.2158-0.29337 9.0359-0.73759 10.711-0.98716zm-21.469-53.844c0.86744-0.92326 2.9789-2.4475 4.6921-3.3872 13.014-7.1384 20.962-11.718 22.28-12.839 0.8523-0.72446 3.5523-2.0103 6-2.8574l4.4504-1.5403-3.3795 2.6877c-3.699 2.9419-3.8127 3.0064-22.621 12.827-7.15 3.7333-12.29 6.0325-11.423 5.1092zm15.86-2.6907c1.3403-1.1156 5.1653-3.625 8.5-5.5765s6.2881-3.8388 6.5631-4.194c1.2221-1.5787 7.9859-6.1345 9.1076-6.1345 1.7264 0-2.5502 4.3883-5.8889 6.0428-1.4953 0.74097-6.3882 3.7345-10.873 6.6522-8.2369 5.3585-11.893 6.9427-7.4085 3.2101zm-6.94-9.43c0-0.51244 21.675-10.925 24.818-11.923 1.538-0.48815 2.182-0.27667 2.182 0.71654 0 0.7936-1.8564 1.9591-4.25 2.6682-2.3375 0.69252-6.725 2.3915-9.75 3.7756-6.5653 3.0039-13 5.3612-13 4.7626zm100.93 60.012c2.8646-8.1145 2.3184-16.411-1.2401-18.834-3.59-2.44-34.69-33.17-34.69-34.27 0-0.55872-0.83913-1.9166-1.8647-3.0174-3.3482-3.5939-4.6706-6.7268-2.1837-5.1738 1.139 0.71129 2.2934 1.9694 2.5654 2.7957 1.207 3.6669 34.147 35.189 40.118 38.391 3.5162 1.8857 3.5347 1.8844 11.315-0.75 4.29-1.45 8.53-2.64 9.42-2.64 1.36 0 1.63-1.22 1.63-7.29 0-13.176-3.8939-17.45-22.783-25.009-4.8457-1.9389-18.272-8.1562-28.967-13.413-3.9875-1.9602-7.25-4.1877-7.25-4.95 0-1.1553 0.37452-1.1407 2.25 0.088 1.2375 0.81069 5.2873 2.6171 8.9995 4.0143s7.5372 2.9881 8.5 3.5355c28.052 15.948 39.01 16.992 48.969 4.6664l5.6641-7.0103-4.9326-9.4828c-4.6918-9.0199-5.1948-9.6029-10.304-11.942l-5.3719-2.4593-10.637 2.5882c-5.85 1.427-14.58 3.385-19.39 4.354-10.44 2.104-11.2 3.312-2.08 3.312 11.727 0 5.7615 1.3683-7.2375 1.6601-6.8888 0.15464-12.948 0.54274-13.466 0.86244-0.51729 0.31971-0.67254-0.11709-0.345-0.97066 0.73336-1.9111-0.62372-1.9998-3.083-0.20148-1.1941 0.87317-1.6534 2.0901-1.2996 3.4432 0.34594 1.3229-0.14857 2.7224-1.3443 3.8045-1.0403 0.94149-1.8915 2.7146-1.8915 3.9402s-0.7875 2.513-1.75 2.861c-9.1811 3.3189-9.6561 11.592-1.2114 21.101 2.8881 3.252 6.1826 10.333 5.3981 11.602-0.44028 0.71238-1.849-1.219-3.5733-4.8989-4.5655-9.7438-7.3109-9.3989-3.9466 0.49584 13.403 39.418 17.649 44.822 35.482 45.155l8.228 0.15361 2.3002-6.5156zm-30.12-28.24c-1.8593-2.6125-4.6702-7-6.2464-9.75s-5.0824-8.2322-7.7916-12.183c-3.2613-4.7555-4.8054-7.9658-4.5695-9.5 0.28685-1.8658 1.1303-0.88341 4.3284 5.0414 2.1847 4.0473 5.4816 9.6172 7.3264 12.378 1.8449 2.7604 3.9891 6.424 4.7649 8.1413 0.77582 1.7174 2.5354 4.81 3.9102 6.8724 3.5914 5.3879 2.2834 4.6285-1.7224-1zm-3.62-13.98c-1.2056-1.6931-2.192-3.5339-2.192-4.0907 0-0.55676-0.35228-1.1623-0.78285-1.3456-1.3193-0.56175-9.4033-13.981-8.7912-14.593 0.3157-0.3157 0.70044-0.3865 0.85497-0.15734 0.15454 0.22917 2.1795 3.1882 4.5 6.5756s4.219 6.4549 4.219 6.8167c0 0.36178 1.1673 2.1882 2.5941 4.0588 1.4267 1.8706 2.4131 3.9438 2.192 4.6073-0.22771 0.68313-1.3527-0.12876-2.5941-1.8721zm20.673-8.7224c-7.2221-4.7526-10.664-8.4064-4.292-4.5564 5.9885 3.6184 12.427 8.0519 12.427 8.5572 0 1.0431-1.8616 0.12756-8.135-4.0008zm-10.36 0.45c-1.5808-1.65-3.5331-3-4.3385-3-1.33 0-12.16-10.15-12.16-11.4 0-0.29366 0.6801-0.27295 1.5113 0.046 1.0814 0.41499 1.3355 0.12161 0.89301-1.0314-0.77895-2.0299 0.9421-2.1038 2.5956-0.11134 0.68469 0.825 1.8962 1.5 2.6923 1.5 1.4663 0 10.308 5.6668 10.308 6.6066 0 0.28082-3.1201-1.1957-6.9335-3.2812-7.0732-3.8682-10.994-3.8904-5.5647-0.0315 3.4662 2.4636 15.274 13.659 14.435 13.687-0.31 0.01-1.86-1.33-3.44-2.98zm10.099-5.7184c-1.0456-0.26752-4.7505-2.4781-8.2331-4.9123s-8.3151-5.2759-10.739-6.3148c-4.6363-1.9873-6.2743-3.5364-4.7414-4.4838 0.50502-0.31212 3.1653 0.94471 5.9118 2.793 2.7465 1.8482 8.8656 5.4711 13.598 8.0508 9.8939 5.3932 10.925 6.5869 4.2034 4.8672zm3.4345-13.36c-3-1.06-6.7-1.92-8.22-1.92-3.6791 0-10.818-2.8064-13.309-5.2321-2.2427-2.184 15.741-2.0123 23.493 0.22428 1.9214 0.5543 5.6604 1.0078 8.309 1.0078 2.8092 0 4.5694 0.39846 4.2246 0.95633-0.32507 0.52598-1.1391 0.78547-1.809 0.57665-0.66988-0.20882-4.818-0.66365-9.218-1.0107-4.4-0.34709-10.25-1.0131-13-1.48-2.75-0.46688-5.3928-0.47704-5.873-0.02258-0.86527 0.81898 0.52622 1.2865 13.662 4.5907 6.0643 1.5254 8.6046 2.8291 7.5559 3.8778-0.1953 0.1953-2.8106-0.50964-5.8117-1.5665zm68.97 65.88c0-0.54375-0.84974-2.1831-1.8883-3.643-2.7088-3.8077-4.9882-12.235-5.7366-21.209-0.58796-7.0501-1.6757-11.148-2.6323-9.9165-2.0579 2.6489 1.1319 26.898 4.1632 31.649 2.9869 4.6816 6.094 6.2718 6.094 3.119zm34.824-13.167c4.01-2.96 17.18-16.61 17.18-17.81 0-1.8896-4.8347 1.8247-12.5 9.6031-4.4 4.465-8.9 8.6458-10 9.2907-1.9878 1.1655-1.9875 1.173 0.0557 1.2314 1.1306 0.0324 3.5013-1.0077 5.2682-2.3112zm-269.49-5.88c-0.50479-0.6875-1.9876-3.95-3.295-7.25-2.2158-5.5927-19.402-24.5-22.27-24.5-2.0193 0 3.1931 7.1784 10.364 14.273 4.3212 4.2753 8.815 9.6753 9.9862 12 2.572 5.1051 3.8093 6.7268 5.1324 6.7268 0.62283 0 0.65383-0.47147 0.0822-1.25zm31.67-11.67c0-1.055 0.27314-2.63 0.60699-3.5 0.39152-1.0203 0.0605-1.5818-0.93261-1.5818-1.8109 0-2.9882 3.0186-2.0901 5.3591 0.86251 2.2477 2.4157 2.0693 2.4157-0.27733zm93.772-10.063c1.6679-2.4808 1.9795-3.6016 1.0844-3.9-0.6909-0.2303-1.4287 0.0988-1.6395 0.73127-0.55639 1.6692-4.8916 1.4091-7.7518-0.46501-3.2978-2.1608-3.5177 1.0068-0.34943 5.0346 2.7663 3.5168 5.6656 3.0476 8.6564-1.4008zm-1.7829-11.839c-0.45355-21.533-0.9221-20.502 11.592-25.514 5.1159-2.0493 8.0198-3.7829 8.2345-4.9157 0.40795-2.1525-1.6618-2.2615-5.4839-0.28886-14.825 7.6514-19.114 8.0007-32.306 2.6309-5.211-2.1213-10.071-3.6282-10.799-3.3486-3.2054 1.23-0.0352 3.702 9.5866 7.4751 12.759 5.0033 12.937 5.2598 13.485 19.407 0.48714 12.588 0.88899 13.88 3.8279 12.307 1.7232-0.92224 1.9844-2.009 1.8634-7.7527zm-30.93-32.18c0.52 0 0.94-0.45 0.94-1 0-1.3137-5.698-1.2977-6.5113 0.01824-0.34612 0.56003 0.41482 2.6975 1.691 4.75l2.32 3.732 0.31037-3.75c0.1707-2.0625 0.7332-3.75 1.25-3.75zm57.951 1.75c2.2724-3.7271 2.4553-4.75 0.84928-4.75-0.62686 0-1.6394-0.66798-2.25-1.4844-0.7-0.932-1.95-1.261-3.36-0.884-2.77 0.741-2.99 3.368-0.27 3.368 1.7108 0 1.8437 0.34589 0.99285 2.5839-1.9485 5.125 1.094 6.0026 4.0429 1.1661zm5.693 1.1461c1.0437-1.0437 3.1756-1.5919 21.25-5.4643 17.545-3.7589 23.59-8.8103 24.596-20.553 0.30067-3.5084 0.73587-7.6029 0.96711-9.0988 0.37376-2.4178 0.008-2.8315-3.2985-3.7254-2.0454-0.55308-5.5016-1.9167-7.6804-3.0302-4.4208-2.2593-9.3936-2.5086-14.328-0.71814-3.58 1.299-32.21 29.094-32.21 31.272 0 2.0226 5.1999 0.64457 7.5-1.9876 1.9474-2.2285 12.5-9.9861 12.5-9.1892 0 0.21956-2.9339 2.7796-6.5198 5.689-11.836 9.603-6.8772 9.8225 7.5579 0.33465 5.38-3.534 10.09-6.426 10.48-6.426 0.9598 0-10.573 8.4372-16.611 12.153-8.0456 4.9505-6.9306 7.1596 1.6895 3.3474 9.4932-4.1984 8.494-2.7151-1.3459 1.998-8.79 4.21-11.42 6.502-7.45 6.502 0.99 0 2.2968-0.49676 2.9039-1.1039zm-47.152-7.1481c0.43332-1.2987 1.2296-1.5901 3.0778-1.1262 1.9729 0.49518 2.6066 0.19208 3.0367-1.4525 0.50736-1.9401 0.69969-1.9759 2.8948-0.53758 1.2932 0.84735 2.8437 1.2363 3.4456 0.86435 1.1687-0.72233 7.5069 1.9072 8.5102 3.5307 1.0823 1.7512 2.223 1.0248 2.7902-1.7768 0.30619-1.5125 3.3129-5.675 6.6817-9.25l6.125-6.5-4.0567 6.6081c-2.23 3.634-4.06 7.122-4.06 7.75s-0.43 1.142-0.96 1.142c-1.5645 0-3.3517 4.0834-2.2635 5.1716 1.14 1.152 4.22-1.602 4.22-3.786 0-1.903 0.24-2.188 15.15-17.712 20.42-21.279 20.07-20.554 17.85-36.185l-1.2374-8.7169-9.2761 0.4057c-12.201 0.53363-16.663 3.2147-18.559 11.153-1.2182 5.099-6.7341 21.116-10.846 31.495-1.1604 2.9289-3.2281 6.9708-4.5948 8.9821l-2.49 3.656-0.15-4.482c-0.22538-6.5925 0.28419-15.855 1.1543-20.982 0.60212-3.5478 0.79506-2.1724 0.91176 6.4999 0.17081 12.693 0.22306 12.656 6.4021-4.5 11.19-31.069 11.193-31.048-6.6147-44.45l-4.7998-3.6124-7.19 6.2814c-12.259 10.71-12.244 10.637-6.7451 32.041 2.2267 8.6676 4.3048 17.443 4.6181 19.5 0.31331 2.0574 0.9742 5.5407 1.4686 7.7407 1.1726 5.2173 1.1623 6.5-0.0521 6.5-0.55 0-1.0077-1.2375-1.0171-2.75-0.01-2.867-1.81-10.17-6.45-26.251-1.5-5.225-3.17-12.399-3.7-15.942-1.55-10.327-4.73-13.036-16.83-14.341-3.025-0.32618-6.9409-0.89791-8.702-1.2705-2.9396-0.62194-3.2481-0.44265-3.7647 2.188-0.31 1.577-1.54 5.791-2.73 9.366-3.9446 11.803-2.8003 14.583 13.361 32.465 16.854 18.648 21.593 24.799 18.004 23.368-0.99327-0.39602-23.573-25.6-30.527-34.074l-4.8627-5.926-5.6373 0.45951c-20.87 1.702-21.31 2.066-18.71 15.708 1.8347 9.6472 6.6193 13.709 23.571 20.011 1.925 0.71562 5.8505 2.3443 8.7234 3.6193 10.638 4.7212 14.171 4.058 5.2058-0.97723-6.2956-3.536-5.8526-4.3821 0.90056-1.7202 6.675 2.631 7.3842 1.0857 1.5473-3.3712-2.57-1.959-4.18-3.562-3.58-3.562 0.59663 0 1.3364 0.40705 1.6438 0.90456 0.77 1.238 11.25 7.095 12.7 7.095 0.66425 0 0.34654-0.92381-0.73485-2.1368l-1.91-2.137 3 1.5361c3.571 1.8285 8.5 6.2451 8.5 7.6164 0 3.6606 6.0575 0.347 7.5515-4.1309zm-6.68-3.912c-3.21-4.047-10.05-14.836-9.41-14.836 0.47 0 14.54 17.908 14.54 18.5 0 1.5786-2.2514-0.02929-5.1297-3.6634zm29.573-3.7246c1.3452-2.6546 3.5289-6.1282 4.8528-7.7191s3.6553-4.8857 5.181-7.3217 3.9052-5.586 5.2878-7l2.52-2.57-2.2953 4c-10.31 17.97-22.17 33.704-15.54 20.612zm-26.66 1.139c-0.84392-0.9625-2.2695-3.1-3.1679-4.75-0.89841-1.65-3.4646-5.925-5.7026-9.5-7.5522-12.064-8.0703-13-7.1945-13 0.48058 0 2.65 3.0375 4.8208 6.75 2.1709 3.7125 6.0054 9.45 8.5213 12.75 4.7217 6.1934 6.4866 9.5 5.0709 9.5-0.44749 0-1.5041-0.7875-2.348-1.75zm14.916 1.0163c-1.01-1.722-1.87-42.266-0.9-42.266 0.58058 0 1.2482 5.7173 1.6056 13.75 0.33649 7.5625 0.76594 17.027 0.95435 21.033 0.30533 6.4912-0.40148 9.6584-1.6701 7.4838zm-11.38-2.516c-0.55978-1.2375-2.2712-4.95-3.8032-8.25-4.5633-9.8297-5.6736-12.715-4.6498-12.082 2.043 1.2626 9.384 15.258 9.8779 18.832 0.58771 4.2528 0.0678 4.8001-1.4249 1.5zm22.34-5.5c3.89-7.226 8.34-14.167 8.34-13.007 0 1.2344-5.9848 13.128-8.2869 16.469-3.8141 5.5348-3.844 3.5819-0.0529-3.4615zm-16.56-5.455c-0.63-4.562-1.4-9.983-1.71-12.045s-0.15-3.75 0.35-3.75c0.86122 0 3.6236 22.967 2.8549 23.735-0.19513 0.19514-0.86989-3.378-1.4995-7.9402zm-432.1 137.02c-1.375-0.58454-7.8114-1.1949-14.303-1.3563-12.196-0.30328-14.246-0.90686-18.465-5.4354-1.8321-1.9665-1.9086-1.968-5.5571-0.10789-14.866 7.5793-40.699 4.7517-63.956-7.0003-7.1444-3.6102-10.617-2.2195-16.431 6.5805-3.8693 5.8563-4.5675 6.4284-8.5818 7.0303-6.9363 1.0402-30.835-0.052-33.996-1.5536-2.3002-1.0926-3.6779-1.0977-7.847-0.0292-4.4502 1.1406-5.2514 1.1016-6.6782-0.32519-2.9231-2.9231 1.4681-6.018 8.7671-6.1789 6.8281-0.15055 11.396-2.8865 15.466-9.2641 4.7876-7.5011 6.609-8.4733 16.32-8.7112 4.819-0.11805 11.342-0.54975 14.496-0.95934l5.7336-0.74472-2.4488-4.1064-2.4488-4.1064-7.3417-0.0702c-12.912-0.12336-19.59-6.6555-20.743-20.29-0.96438-11.402-8.4333-22.986-17.421-27.021l-2.981-1.3381 2.4589-1.8896c4.1302-3.174 9.5454-2.3477 14.035 2.1416 1.62 1.62 3.3871 1.9258 11.174 1.9341 22.485 0.0237 38.084 21.43 27.25 37.395-3.9275 5.7875-1.1548 13.935 6.6716 19.605 7.3887 5.3524 9.0311 2.1447 5.8888-11.502-2.6422-11.475-2.605-12.722 0.53962-18.088 2.1955-3.7463 2.4999-5.1743 1.9566-9.1781-1.9662-14.489-1.3804-22.443 1.1409-15.491 1.5121 4.1691 7.0893 10.578 12.1 13.904 14.479 9.6109 18.859 18.481 13.024 26.375-1.1984 1.621-1.9196 3.2065-1.6027 3.5235 1.241 1.241 11.092-1.3543 12.116-3.1922 0.57013-1.0227 3.2583-4.2113 5.9738-7.0859 3.6332-3.8461 4.7942-5.7731 4.396-7.2961-0.54791-2.0952 7.8709-13.493 10.795-14.616 2.7824-1.0677 5.9043-10.565 5.9533-18.112 0.0259-3.9874 0.36563-7.2499 0.75495-7.25 1.005-0.00023 5.7922 8.3809 5.7922 10.141 0 0.80578 1.8415 5.2662 4.0921 9.9122 6.2435 12.888 6.315 16.926 0.43314 24.447-6.1045 7.8053-8.4249 12.059-6.0893 11.163 0.90098-0.34573 4.0715-1.336 7.0456-2.2006 6.8048-1.9782 10.348-5.8584 13.944-15.268 2.9604-7.7473 5.991-11.366 12.061-14.402 4.3849-2.1932 10.504-7.5623 10.528-9.2378 0.008-0.57961 0.45842-1.7288 1-2.5538 3.1075-4.7337 4.126 12.955 1.4183 24.63-0.86152 3.7148-1.3275 7.6679-1.0354 8.7846 1.1637 4.45-9.6958 17.555-13.257 15.998-5.8085-2.5385-23.515-4.0889-29.038-2.5426-1.7465 0.48896 0.2897 1.1667 7.5 2.4962 12.774 2.3555 17.546 6.5838 19.899 17.633 0.40989 1.925 1.7342 5.525 2.9429 8 3.3688 6.8979 2.1997 9.2097-3.4441 6.8104zm-134.83-9.68c2.3831-1.0287 5.2318-2.8748 6.3305-4.1024 2.7651-3.0895 6.2078-4.7105 11.778-5.5458 2.612-0.3917 5.0136-1.1402 5.337-1.6633 2.4674-3.9923-10.267-0.86247-18.86 4.6355-3.8403 2.457-8.5056 4.97-10.367 5.5844-1.862 0.61-3.385 1.53-3.385 2.04 0 1.5177 4.5438 1.0478 9.1671-0.94796zm70.833-1.8c0-0.36919-0.71314-1.4593-1.5848-2.4224-3.8929-4.3016-2.4999-14.345 1.9024-13.716 1.7629 0.2518 2.1308 0.88805 1.9143 3.3107-1.0396 11.63 4.6288 15.81 16.128 11.892 2.5936-0.88374 5.5984-1.376 6.6771-1.0939 2.9648 0.77531 3.044-0.3482 0.47082-6.6793-3.4216-8.4186-4.5586-9.3535-11.816-9.7157-27.671-1.381-51.892 8.7234-36.188 15.097 8.588 3.49 22.496 5.54 22.496 3.33zm58.75-0.58c-0.44909-1.3575-2.2549-2.3684-10.928-6.1176-3.1213-1.3492-7.6716-4.2935-10.112-6.5428-3.9-3.59-6.71-5.1-6.71-3.6 0 5.0414 12.75 15.122 20.859 16.492 6.8399 1.1553 7.3475 1.1383 6.8946-0.23081zm-86.345-13.18c1.763-3.01 2.595-5.88 2.595-8.97 0-2.6462 0.92061-6.4401 2.2035-9.0806 2.0822-4.2859 2.1196-4.7655 0.67879-8.7172-1.994-5.47-3.882-6.11-3.882-1.32 0 2.007-0.55655 4.632-1.2368 5.8333-0.68023 1.2013-1.4728 6.7551-1.7613 12.342-0.3985 7.7168-0.94283 10.62-2.2654 12.081-0.95748 1.058-1.4521 2.2124-1.0992 2.5653 1.0019 1.0019 1.9712 0.0398 4.7679-4.7325zm45.815-10.32c1.7298-6.6274-2.8358-10.277-7.2104-5.7636-2.3668 2.4419-2.9219 3.5136-1.8201 3.5136 0.87196 0 2.6477 0.88503 3.9462 1.9667 2.945 2.4535 4.4953 2.5398 5.0843 0.28327zm9.9524-12.671c0.30283-4.7559 1.0657-7.3426 3.0147-10.223 6.3656-9.4066 4.211-11.101-2.4977-1.9645-4.4434 6.0516-4.6929 6.7338-4.6929 12.833 0 10.584 3.4952 10.043 4.1759-0.64606zm33.124 6.7669c6.5135-3.3672 10.714-7.6816 13.764-14.136 3.2871-6.9572 3.0758-9.4767-0.40456-4.8235-3.1508 4.2126-15.747 16.947-18.659 18.863l-2.5 1.6453 2.2997 0.0524c1.2648 0.0289 3.7398-0.69205 5.5-1.602zm-121.59-3.6c-1.8924-7.9558-8.0608-20.72-9.377-19.404-0.19688 0.19687 0.96079 3.4621 2.5726 7.2561s3.2452 8.5857 3.6298 10.648c0.44058 2.3628 1.256 3.75 2.2045 3.75 1.053 0 1.3445-0.67612 0.97008-2.25zm299.8 44.45c-3.85-0.1655-7.4275-0.728-7.95-1.25-0.5225-0.52199-2.0975-0.9579-3.5-0.96869-2.9883-0.023-20.323-7.2981-20.8-8.7295-0.89019-2.6706 8.0951-2.0505 15.621 1.078 17.157 7.1322 57.562 1.2186 54.103-7.9184-0.45138-1.1924-3.2992-3.2713-6.6326-4.8417-11.476-5.4067-12.799-9.6075-6.3757-20.248 4.7218-7.8218 6.4255-13.075 9.0484-27.902 1.7646-9.9745 3.0758-13.419 5.1081-13.419 0.48266 0 0.87756 1.1429 0.87756 2.5398 0 3.7085 3.4688 9.9032 7.0598 12.608 1.7181 1.2939 4.095 3.4223 5.282 4.7298s3.8565 4.2219 5.9322 6.4765c6.4872 7.0461 3.3386 24.363-6.09 33.495-6.3924 6.1913-5.772 7.4963 1.7511 3.684 8.4458-4.2798 14.976-13.061 17.964-24.157 2.3718-8.8081 8.6061-14.664 16.825-15.803 5.961-0.82613 10.42-2.5139 11.959-4.5264 3.2719-4.2787 6.6462 12.474 4.462 22.153-3.0512 13.521-6.7535 16.396-24.812 19.266-15.961 2.5366-30.951 6.8294-25.643 7.3434 1.7543 0.16987 6.1892-0.61763 9.8553-1.75 8.3244-2.5711 13.209-2.5828 26.433-0.0631 10.34 1.9702 12.357 1.943 16.771-0.22677 2.6826-1.3187 3.6577-0.62426 2.8218 2.0095-0.57442 1.8098-1.6817 2.5035-10.57 6.6215-1.925 0.89184-5.4475 3.1917-7.8277 5.1108l-4.32 3.49h-15.417-15.417l-6.255-5.0551c-6.8143-5.5071-10.719-6.0232-15.255-2.016-5.5908 4.9391-22.045 8.8272-35 8.2702zm78.5-12.2c0-0.55-1.4655-1-3.2566-1s-4.6088-0.38781-6.2615-0.86181c-1.6527-0.47399-4.5748-0.62114-6.4934-0.327l-3.4885 0.53479 5 1.2082c6.2723 1.5156 14.5 1.7686 14.5 0.4458zm-33.08-14.465c3.0891-8.8599 2.7203-13.901-1.8484-25.264-2.1606-5.3738-4.2426-11.041-4.6268-12.594-0.43656-1.7645-1.0514-2.4703-1.6397-1.882-1.191 1.191 0.62972 11.569 3.457 19.705 2.164 6.2275 2.7463 17.499 1.266 24.504-1.1162 5.2815 0.93423 2.58 3.3919-4.469zm35.882-3.5554c7.6965-4.6925 17.924-20.944 18.157-28.852 0.0796-2.7001-3.1013 1.1213-5.6918 6.8379-3.3308 7.3504-10.28 17.035-14.974 20.869-4.2843 3.4992-2.608 4.2643 2.5085 1.1448zm-172.67 28.513c-1.85-0.82-4.05-1.49-4.89-1.49-0.83911 0-3.5187-0.99536-5.9546-2.2119l-4.4289-2.2119 3.8194-1.3384c7.1717-2.5131 29.351 3.2925 25.702 6.7276-1.8306 1.7232-10.802 2.055-14.248 0.52693zm23.415-0.33528c-0.50954-1.6054-6.636-6.3267-12.675-9.768-1.0723-0.611-3.019-2.1156-4.3261-3.3435l-2.3765-2.2326-2.836 2.0338c-1.5598 1.1186-4.411 2.2682-6.336 2.5546-1.925 0.28642-6.187 1.4483-9.471 2.5819-7.0243 2.4247-8.1126 2.189-9.0226-1.9543-0.37522-1.7084-2.3057-5.2263-4.29-7.8176-3.8315-5.0035-6.1004-10.184-6.1725-14.092-0.0408-2.2134-0.30757-2.3282-3.7939-1.6318-6.0682 1.2122-9.1944 0.73715-12.29-1.8674-2.9132-2.4513-8.1852-4.217-9.7336-3.26-2.3326 1.4416-3.0448-1.0175-1.8454-6.372 0.67608-3.0184 0.92014-6.8379 0.54234-8.4879-1.9594-8.5573-0.32708-16.879 3.8264-19.508 1.4892-0.94265 1.5265-1.1948 0.25002-1.6918-2.1146-0.82334-10.883-10.146-14.75-15.684-3.7428-5.359-4.048-7.9647-1.2854-10.975 1.0805-1.1775 4.0653-4.9823 6.6329-8.455s5.6907-6.9839 6.9403-7.8027c2.0241-1.3263 2.1648-1.8769 1.2893-5.0477-0.54049-1.9575-1.0781-6.8563-1.1946-10.886-0.15864-5.4852-0.67235-7.836-2.0434-9.3511-2.91-3.219-1.38-5.09 4.17-5.09 3.8015 0 5.9586-0.73674 10.248-3.5 3.981-2.5648 6.5412-3.5 9.5819-3.5h4.1494l0.4907-6.8582c0.32632-4.5608 1.2551-8.2182 2.7724-10.918 1.3601-2.4199 2.0554-4.9255 1.7213-6.2029-0.77228-2.9532 1.4514-3.5712 6.1234-1.7019 2.4466 0.97894 5.3642 1.3294 8.059 0.96792 2.7319-0.36642 6.3851 0.08779 10.342 1.2859 5.2609 1.5929 6.1862 1.6475 6.6041 0.38985 0.2673-0.80441 2.2806-3.0376 4.4741-4.9626s6.0566-5.3393 8.5849-7.5873c6.8371-6.0794 7.4687-6.1099 12.891-0.62348 2.588 2.6184 7.086 6.5432 9.9956 8.7219s5.5459 4.9799 5.8584 6.225c0.70855 2.8231 1.09 2.8156 6.4754-0.1278 2.4068-1.3154 7.301-2.8863 10.876-3.4908 3.575-0.60453 6.9996-1.7783 7.6102-2.6084 1.7853-2.4268 4.2914-1.796 4.9292 1.2408 0.31766 1.5125 1.9676 5.745 3.6665 9.4055 2.7353 5.8935 3.0246 7.3656 2.5265 12.858l-0.56243 6.2025 3.165-0.80659c8.0943-2.0628 15.745-0.32952 20.783 4.7086 1.2233 1.2233 2.6994 1.7573 3.849 1.3925 3.1817-1.0098 3.1934 11.961 0.0219 24.328-0.77254 3.0125-0.53985 3.6166 2.381 6.1811 1.7805 1.5633 4.5316 5.2205 6.1136 8.1272s4.1454 6.3527 5.6964 7.6577c3.5639 2.9988 3.5372 4.2159-0.17994 8.1951-1.65 1.7663-3.8764 5.1927-4.9475 7.6142-1.99 4.48-7.51 10.39-9.72 10.39-2.4042 0-2.3658 1.9928 0.11421 5.9214 1.547 2.4506 2.7747 6.2353 3.1749 9.7872 0.35885 3.1853 1.2975 7.0695 2.086 8.6317 1.7285 3.4248 1.071 5.6597-1.6651 5.6597-1.1092 0-6.3049 2.25-11.546 5-5.2412 2.75-10.824 5-12.406 5-2.2588 0-3.0161 0.55455-3.5247 2.5809-0.35628 1.4195-1.8307 4.3684-3.2765 6.5532s-3.1822 6.0858-3.8588 8.6691c-0.80346 3.068-1.6988 4.5736-2.5819 4.3415-0.74353-0.19539-3.6019-0.23196-6.3519-0.0813-10.235 0.56088-13.084 0.32694-16.404-1.3472-4.5685-2.3036-5.267-2.1624-7.5964 1.5368-1.1 1.7468-4.475 4.8974-7.5 7.0012s-5.9063 4.7073-6.4028 5.7854c-1.1565 2.5111-5.2623 2.5907-6.0474 0.11729zm8.11-7.15c1.8792-1.65 3.9636-3.0164 4.632-3.0364 1.44-0.04 6.72-6.74 6.72-8.52 0-1.55-6.48-28.22-8.49-34.94-1.7-5.71-6.51-24.2-6.51-25.06 0-3.9068-5.4767 0.85941-6.9656 6.0619-2.8036 9.796-4.0341 15.361-4.0388 18.264-0.002 1.5046-2.1677 9.9356-4.8118 18.736-4.5502 15.144-5.336 22.948-2.1102 20.954 0.37509-0.23182 2.6573 1.0336 5.0716 2.812s5.7318 4.221 7.3722 5.4279c3.9758 2.9252 5.1112 2.8389 9.1354-0.69444zm-6.1206-29.456c-0.38742-4.6509-0.47355-8.8297-0.19141-9.2862 0.28213-0.45651 0.11162-6.882-0.37892-14.279-0.89-13.5-0.37-16.79 2.24-14.18 0.82429 0.82429 0.87711 1.5229 0.16868 2.2313-0.67235 0.67235-0.87866 8.5039-0.59274 22.5 0.45656 22.349-0.0364 27.507-1.2438 13.013zm-5.7724-7.0907c-0.68033-3.5157 0.59176-23.138 1.563-24.109 0.93377-0.93378 0.71983 22.688-0.22742 25.109-0.66602 1.7025-0.83741 1.5742-1.3356-1zm9.9155-12.295c-1.0036-6.2381-1.6276-11.539-1.3868-11.78 0.72481-0.72481 3.9515 17.927 3.5676 20.622-0.19585 1.375-1.1772-2.6039-2.1808-8.842zm-34.983 42.243c5.1188-0.61856 9.6359-5.2366 11.381-11.635 0.63986-2.3466 2.202-7.6416 3.4714-11.767 1.2694-4.125 3.3046-12.225 4.5228-18 1.2181-5.775 2.9502-12.75 3.8491-15.5 1.9988-6.1149 1.6404-10.188-0.96932-11.017-2.2695-0.7203-3.9471 0.1055-3.9471 1.9429 0 0.71945-1.7912 2.4934-3.9804 3.9422-5.8078 3.8434-35.136 33.971-37.756 38.785-2.7604 5.072-2.3982 6.7603 3.6372 16.953l4.599 7.7667 5.5-0.48262c3.025-0.26544 7.3867-0.71062 9.6927-0.98928zm4.85-34.9c4.3202-8.25 9.1002-17.552 10.622-20.672 1.5221-3.1197 3.1878-5.932 3.7017-6.2495 1.595-0.98576-2.4797 8.5988-7.641 17.973-14.211 25.812-18.57 31.648-6.683 8.9482zm6.5184 1.8329c-0.0372-1.1919 0.88338-4.3419 2.0458-7s3.3318-8.406 4.8209-12.773c1.4891-4.3672 3.1979-8.1038 3.7974-8.3036 1.254-0.418-2.7316 12.785-6.1112 20.244-1.246 2.75-2.7648 6.125-3.3753 7.5-1.0457 2.3555-1.1138 2.3747-1.1776 0.33291zm-10.693-9.6024c4.2569-6.5168 13.984-18.059 13.434-15.941-0.36739 1.4148-7.4094 10.412-12.602 16.102l-3.2938 3.6088 2.4623-3.7695zm74.37 39.09c3.093 0.1448 4.25-0.18658 4.25-1.2173 0-0.77893 1.35-4.4251 3-8.1027 1.65-3.6775 3-7.559 3-8.6256 0-2.1471-14.703-19.557-23.117-27.374-2.9602-2.75-7.0518-7.1014-9.0925-9.6699-2.0407-2.5684-4.5199-4.9268-5.5094-5.2409-0.98945-0.31404-2.245-1.585-2.7901-2.8243-1.0972-2.4945-3.4013-3.2553-7.0702-2.3345-2.531 0.63523-3.5357 4.5695-1.167 4.5695 1.3586 0 14.083 26.488 13.527 28.158-0.18608 0.55824-2.1077-2.7364-4.2702-7.3214-8.0169-16.997-10.201-18.981-6.1014-5.5414 1.4188 4.6517 4.2037 14.926 6.1886 22.831 5.3695 21.386 8.0231 24.652 18.902 23.261 3.3-0.42169 7.9125-0.67719 10.25-0.56777zm-14.519-26.154c-1.1096-1.8806-2.3536-4.4786-2.7646-5.7734-0.41094-1.2948-1.5233-3.4878-2.4719-4.8735-4.05-5.92-8.99-13.91-8.99-14.55 0-0.3774-1.125-2.0232-2.5-3.6573-2.354-2.7976-3.4004-6.8554-1.75-6.7862 1.0617 0.0445 3.8244 4.0386 4.6941 6.7863 0.40348 1.2747 2.7245 5.6851 5.1578 9.8008 5.7051 9.6498 11.651 21.462 11.086 22.027-0.24212 0.24212-1.348-1.0984-2.4576-2.979zm-90.578 5.5419c5.94-3.22 47.35-45.04 47.35-47.82 0-0.76-0.76-1.39-1.69-1.39-1.8661 0-8.2942 4.0635-8.305 5.25-0.012 1.3146 1.6448 0.81187 4.3583-1.3226 1.45-1.14 2.64-1.66 2.64-1.16 0 1.2085-5.2026 5.8331-12 10.667-3.025 2.1512-6.6467 4.8461-8.0482 5.9888s-0.36695-0.11286 2.299-2.7901c5.7203-5.7445 5.5069-7.0896-0.48049-3.0287-4.0208 2.7271-10.29 6.4618-19.125 11.392-7.8489 4.3806-2.203-0.15824 8.8922-7.1485 6.3-3.97 11.46-7.59 11.46-8.04 0-1.4708-4.6626-0.84981-9.42 1.2546-7.2053 3.1872-7.8706 1.6421-0.83001-1.9276 11.016-5.585 8.7939-6.3503-6.4687-2.2283-5.9297 1.6014-14.766 3.8176-19.637 4.9248-13.579 3.087-16.827 7.7225-14.126 20.163 0.77615 3.575 1.427 7.9766 1.4463 9.7814 0.0236 2.2004 0.61163 3.4858 1.7851 3.902 0.9625 0.34134 2.425 1.1685 3.25 1.8381 4.3066 3.4956 11.895 4.2642 16.652 1.6866zm129.01-2.9596c10.57-5.85 13.43-7.25 14.81-7.25 1.8799 0 1.9016-0.69699 0.17548-5.6243-0.74677-2.1316-1.6786-6.0418-2.0708-8.6892-1.2659-8.5458-3.3243-9.8331-25.071-15.679-10.45-2.8093-19.841-5.3574-20.868-5.6624-5.6293-1.6709 0.14314 2.4341 7.4221 5.2781 8.3039 3.2445 8.259 4.8102-0.0538 1.8772-5.9923-2.1142-7.528-1.0808-2.25 1.514 8.265 4.0634 17.227 9.6451 17.238 10.736 0.018 1.8348-0.53506 1.6263-6.7926-2.5607-16.699-11.174-26.184-13.313-12.62-2.8463 4.1648 3.2136 7.3671 6.0482 7.1163 6.299-0.77805 0.77805-7.9432-3.6506-13.351-8.2518-2.84-2.41-5.48-4.39-5.87-4.39-0.38859 0-3.0168-1.6465-5.8405-3.6588-4.1589-2.9639-2.9328-1.397 6.4555 8.25 6.3742 6.5499 15.761 16.272 20.86 21.604 5.0986 5.3322 10.233 9.8834 11.41 10.114 4.3714 0.85576 6.2181 0.64528 9.3014-1.0602zm-135.73-38.19c4.1625-1.0678 12.293-3.1382 18.068-4.601 12.397-3.1401 13.708-3.919 5.3857-3.2001-5.7632 0.49788-9.72-0.31487-7.6777-1.5771 0.50683-0.31324 4.8299-0.65567 9.6068-0.76096 11.878-0.26179 12.707-2.8944 0.93524-2.9679-5.9249-0.037-24.528-1.987-28.25-2.9613-2.675-0.70011 4.4615-1.4211 8.3703-0.84566 13.764 2.0264 37.409 2.2299 40.283 0.34659l2.7735-1.8172-10.464-2.6824c-14.85-3.807-22.88-6.512-46.08-15.53-5.88-2.286-9.49-0.531-14.48 7.04-1.8102 2.75-4.4417 6.4118-5.8479 8.1372-2.9671 3.6408-3.1263 4.6451-1.0146 6.3976 0.8481 0.70387 3.3679 4.0569 5.5995 7.4512 6.5714 9.9951 9.5232 10.976 22.79 7.5726zm22.889-18.917c-8.2037-1.7533-11.008-3.1554-6.2372-3.1189 4.0141 0.03071 25.362 3.5899 26.128 4.3562 1.2191 1.2192-12.346 0.37542-19.891-1.2372zm127.22 18.33c2.7847-1.7579 4.7416-4.1198 6.4212-7.75 1.3287-2.8718 3.2299-6.5199 4.2248-8.1068 1.3358-2.1306 1.4854-3.0013 0.572-3.329-0.68034-0.24404-2.8614-3.5349-4.8467-7.3131-5.64-10.733-8.9201-12.005-20.044-7.7762-8.3785 3.1853-22.636 7.1685-35.372 9.8819-17.487 3.7257-23.992 15.071-8.5 14.825 1.65-0.0262 7.05 1.1556 12 2.6262 33.024 9.8108 39.449 10.79 45.545 6.9416zm-45.29-10.31c-7.01-0.86-12.75-1.98-12.75-2.49 0-0.53342 1.8232-0.65771 4.25-0.28974 2.3375 0.35443 8.2838 1.095 13.214 1.6456 4.9302 0.55067 9.4077 1.4449 9.95 1.9872 0.64804 0.64804 0.489 0.93633-0.46397 0.84103-0.7975-0.0798-7.1875-0.84363-14.2-1.6975zm-9.25-6.1464c4.0707-1.0971 36.5-2.0718 36.5-1.097 0 0.83921-21.096 2.132-32.5 1.9916-5.4738-0.0674-6.3459-0.26243-4-0.89469zm-4.5-2.865c0-1.4916 27.613-4.5798 28.476-3.1846 0.29218 0.47274-3.4078 1.1622-8.2221 1.5321-4.8144 0.36991-10.328 1.0829-12.253 1.5845-4.4104 1.1491-8 1.1797-8 0.06807zm6.8452 19.302c0.18984-0.16735 0.0363-1.7103-0.34109-3.4287-0.75778-3.4502-3.0508-3.5814-2.9247-0.16733 0.0534 1.4443-0.52041 2.1488-1.75 2.1488-2.0763 0-2.4696 1.5801-0.5794 2.3277 1.1288 0.44646 4.7334-0.12073 5.5952-0.88044zm-58.19-2.276c-0.92-1-1.66-2.84-1.66-4.07 0-2.9965-3.0251-2.432-4.6723 0.87186-1.6393 3.2881-0.0983 5.0302 4.4497 5.0302 3.3589 0 3.4512-0.0899 1.8776-1.8287zm52.237-1.7705c0.47-0.43-1.67-2.27-14.15-12.14l-9.75-7.72-0.01-9.02c-0.01-14.943-1.01-22.664-2.89-22.293-1.39 0.274-1.6 2.439-1.6 16.27v15.954l-11.734 7.0246c-10.734 6.4264-13.171 8.7866-11.153 10.804 0.33721 0.33722 5.8066-2.0628 12.154-5.3333 15.046-7.7524 14.849-7.7746 28.733 3.2174 5.4845 4.342 8.2098 5.191 10.392 3.237zm-42.15-18.935c-0.33278-1.7408 0.0618-2.8279 1.2592-3.4687 1.5049-0.80541 0.65365-2.0679-6.2132-9.2146-4.38-4.555-12.51-13.12-18.07-19.032s-10.72-10.75-11.46-10.75c-0.75 0-2.13-1.347-3.07-2.994-0.93-1.646-2.38-3.044-3.2-3.106-4.3082-0.3225-7.8593 0.56269-12.433 3.0991-2.787 1.5457-6.4174 3.089-8.0674 3.4295l-3 0.61905 0.33927 9.226c0.5326 14.483-0.0633 14.036 35.605 26.715 23.662 8.4111 29.065 9.4562 28.304 5.4754zm-9.9882-1.5473c-4.45-1.05-18.2-7.815-17.43-8.58 1.01-1.012 21.67 7.738 21.67 9.179 0 0.26574-0.1125 0.43795-0.25 0.3827s-1.9328-0.49725-3.9897-0.98223zm-3.26-5.894c-3.3-1.6085-7.575-4.3369-9.5-6.0632l-3.5-3.1387 4 2.2714c2.2 1.2492 6.8125 3.7943 10.25 5.6556 5.8419 3.1633 7.304 4.2864 5.5 4.2249-0.4125-0.01405-3.45-1.3416-6.75-2.9501zm2.34-4.274c-3.3983-2.8875-6.3789-5.852-6.6235-6.5879-0.67918-2.0427 12.367 7.7418 14.133 10.6 1.6986 2.7484-1.6739 0.94672-7.5098-4.012zm55.105 9.25c2.2436 0 4.8607-0.45424 5.8157-1.0094 0.95504-0.55518 8.9364-3.0259 17.736-5.4905 27.455-7.6893 30.159-9.7677 30.928-23.775 0.41501-7.5599 0.35284-7.8194-2.2504-9.3934-1.4725-0.89029-3.9272-2.4769-5.4549-3.5257-6.7885-4.6607-19.102-2.8706-24.05 3.4965-2.8797 3.7053-13.602 14.627-26.004 26.487-9.5025 9.0874-9.5558 9.1751-6.6681 10.978 1.1 0.68696 2 1.936 2 2.7757 0 1.1995 0.41451 1.3049 1.9343 0.49153 1.07-0.568 3.77-1.034 6.02-1.034zm3.56-5.108c10.714-5.7158 16.5-8.0082 16.5-6.5374 0 1.589-14.031 8.3599-19 9.1686-3.1288 0.50923-2.8636 0.23014 2.5-2.6312zm-9.4643-0.25807c2.67-2.49 32.96-17.787 32.96-16.645 0 0.61648-2.5399 2.2441-5.6442 3.617s-7.4918 3.7575-9.75 5.2992c-8.9902 6.1376-21.999 11.86-17.57 7.7289zm2.8665-5.9735c2.6557-2.8895 15.967-11.125 16.737-10.355 0.43732 0.43732-15.713 11.638-18.139 12.58-0.55 0.21358 0.081-0.78781 1.4022-2.2253zm-34.103 1.8798c0.89726-1.9693 0.7189-3.6136-0.89488-8.25-1.12-3.184-2.42-7.59-2.9-9.79-0.91-4.185-8.43-33.446-9.54-37.124-1.93-6.355-25.27-10.215-26.47-4.376-0.28225 1.375-1.3081 3.9547-2.2797 5.7328-5.1755 9.4713-3.9406 13.122 9.267 27.397 26.508 28.65 30.365 31.755 32.8 26.411zm-5.712-4.3769c-0.6-1.104-1.71-2.633-2.48-3.398-1.44-1.438-5.62-9.158-5.62-10.373 0-0.37846 2.3052 2.7734 5.1227 7.0041s4.879 7.936 4.581 8.2339c-0.29795 0.29795-1.0252-0.36173-1.6162-1.466zm-5.1-1.446c-2.8085-2.4939-10-12.051-10-13.289 0-1.0263 2.2731 1.5276 8.3164 9.3434 5.2412 6.7786 5.4655 7.3041 1.6836 3.946zm4.81-5.967c-5.9132-11.26-7.995-16.979-5.3953-14.822 1.808 1.5005 3.6281 5.2948 6.6303 13.822 2.2365 6.3523 1.7728 6.7278-1.2351 1zm48.684-4.1375c21.75-22.03 23.544-26.428 16.904-41.441-1.3552-3.0645-2.5923-5.7-2.7491-5.8568-0.79214-0.79214-17.007 2.8276-20.384 4.5505-4.9547 2.5277-5.9036 4.7232-12.376 28.635-7.4732 27.61-7.2643 26.456-5.1734 28.574 4.31 4.3647 6.5152 3.0236 23.778-14.461zm-19.91 10.388c0.96841-3.546 8.4929-18.435 9.5129-18.824 0.46764-0.17818 2.7754-3.8902 5.1284-8.249s4.5868-7.9255 4.964-7.926c0.37726-0.000542-2.2996 5.2865-5.9487 11.749-3.649 6.4625-8.3682 14.9-10.487 18.75s-3.5452 5.875-3.1697 4.5zm3.6375-0.38646c0.70507-1.3126 3.3805-4.6795 5.9454-7.4822 2.5649-2.8026 5.6087-6.2974 6.764-7.7662s2.3566-2.4145 2.6694-2.1017c0.55736 0.55736-7.5117 11.554-12.464 16.987-3.0846 3.3836-4.6413 3.5777-2.9148 0.36354zm-7.19 0.386c-0.029-1.6105 4.1215-12.05 8.3488-21 4.2806-9.0625 2.953-3.0966-1.8754 8.4283-5.2 12.433-6.43 14.811-6.47 12.572zm-3.6716-0.25c0.33671-1.7875 1.7165-7.525 3.0662-12.75 7.0804-27.409 8.8571-37.643 7.3304-42.223-1.67-5.002-19.76-18.566-19.76-14.814 0 0.5292-2.66 2.768-5.91 4.974-12.62 8.574-12.41 18.886 1.23 60.063l2.4846 7.5 0.0986-6.6151c0.0787-5.2805-0.32026-7.1476-1.9775-9.2545-1.7947-2.2816-1.9257-3.0949-0.96673-6.0007 0.61014-1.8488 0.87716-5.3343 0.59336-7.7455-0.50412-4.2833-0.49005-4.3094 0.61139-1.1342 1.9341 5.5755 3.9603 3.6563 4.3436-4.1141 0.1122-2.2748 0.26936-5.625 0.34923-7.4449 0.2855-6.5052 2.1452-1.9859 2.1452 5.213 0 10.735 3.7098 14.366 5.7165 5.596 1.006-4.3963 1.0304-4.3197 1.0629 3.323 0.0182 4.3026 0.29644 8.0862 0.61821 8.408 0.32177 0.32177 0.20027 1.0764-0.26999 1.677-0.47027 0.6006-1.1349 3.5908-1.4769 6.6448-0.34202 3.054-0.9096 6.9915-1.2613 8.75-0.38 1.89-0.23 3.196 0.36 3.196 0.55 0 1.2755-1.4625 1.6122-3.25zm-6.86-16.873c0.55 0.01221 1.9 0.15731 3 0.32243 2.3883 0.35852 2.2526-2.6561-0.24524-5.4498-2.3282-2.6038-5.0092-2.1256-6.7291 1.2003-2.159 4.1749-1.9631 5.4169 0.72432 4.5939 1.2375-0.37899 2.7-0.67907 3.25-0.66686zm659.91 136.62c-1.765-2.6936-5.2183-3.2882-7.2606-1.25-2.8044 2.7987-38.196 1.3697-50.147-2.0247-13.284-3.773-26.763-8.7365-30-11.047-1.375-0.98147-4.525-2.8147-7-4.0739s-5.4724-3.1885-6.6608-4.2873c-2.387-2.2071-5.1789-2.1278-6.4498 0.18311-0.45371 0.825-2.1482 4.4306-3.7656 8.0124-4.4653 9.889-10.375 13.164-26.287 14.571-11.146 0.98496-16.826-1.3773-10.917-4.5401 2.0763-1.1112 3.5346-4.969 4.535-11.997 1.52-10.67 12.82-19.05 25.68-19.05h3.8073l-2.1716-3.75c-2.8639-4.9454-3.3586-5.2168-9.543-5.2347-15.941-0.0462-25.405-13.046-19.754-27.134 0.94572-2.3575-1.9909-2.852-17.03-2.8678-25.009-0.0261-36.684-4.6697-36.684-14.59 0-7.6818 5.7421-10.754 24.059-12.875 18.938-2.192 21.312-3.1183 16.191-6.3168-3.001-1.8742-2.4999-3.5821 0.85417-2.9112 1.6216 0.32433 3.403 0.05444 4.125-0.625 0.98816-0.92985 1.3755-0.90958 1.7415 0.09111 0.25886 0.70782 1.5473 2.5664 2.8631 4.1302l2.3925 2.8433-1.9809 2.5183c-2.6297 3.3431-8.7841 4.7273-24.94 5.6091-32.717 1.7858-24.308 16.289 9.5735 16.512 14.655 0.0965 15.305 0.18871 17.791 2.5244 1.4191 1.3334 2.5802 1.8663 2.5802 1.1843 0-2.4339-1.9707-4.8538-4.9618-6.0927-3.5066-1.4525-3.8667-2.6181-1.0819-3.502 3.8253-1.2141 8.8603 0.55683 11.528 4.0548 1.9873 2.6055 4.0824 3.8133 9.3214 5.3735 12.006 3.5755 15.465 9.0598 15.604 24.742 0.0873 9.8419 0.18873 10.287 3.0174 13.24 3.6041 3.7618 3.9996 3.4179 3.6925-3.2114-0.58427-12.613 10.975-26.661 21.972-26.703 2.1325-0.008 2.794-0.68482 3.7332-3.8197 0.62781-2.0954 2.2691-4.8693 3.6474-6.1641l2.5059-2.3542-6.128-5.5859c-3.3704-3.0722-7.5857-6.356-9.3673-7.2973-5.5978-2.9575-5.5204-5.4217 0.32367-10.301 1.8186-1.5184 4.8008-5.0617 6.6272-7.8742 3.6806-5.6679 6.7776-9.1628 8.7601-9.8856 0.94641-0.34504 0.70421-1.0558-0.87947-2.581-1.3008-1.2527-2.4012-3.8338-2.7183-6.3759-0.31-2.343-0.81-6.065-1.12-8.265-1.46-10.179-1.93-9.405 7.51-12.344 6.0967-1.897 10.338-2.5887 15-2.4463l6.5 0.19853 0.0112-9.3139c0.008-6.2474 0.4474-9.8395 1.3361-10.91 0.7287-0.87802 1.0188-2.0917 0.64467-2.697-2.1969-3.5547 2.0455-7.84 5.782-5.8404 1.171 0.62668 5.563 1.2595 9.7601 1.4063 6.5932 0.23063 8.23 0.67533 12.035 3.2699 4.7106 3.212 5.931 3.2261 5.931 0.06853 0-3.1983 2.715-7.5562 6.2349-10.008 1.7958-1.2507 5.241-3.9862 7.6559-6.0788 5.5312-4.7932 12.448-1.2381 21.014 10.801 2.6591 3.7373 4.5366 4.2102 7.1882 1.8105 0.96754-0.87562 4.9131-1.9809 8.8243-2.472 3.8909-0.48855 8.4039-1.5759 10.029-2.4163 6.1542-3.1824 8.3358-2.2116 7.5684 3.3679-0.5074 3.6892-0.24972 5.7151 1.0455 8.2198 1.0417 2.0144 1.7625 5.8244 1.8295 9.6707l0.1107 6.3468 3-0.60597c8.3934-1.6954 11.395-1.7262 14.555-0.14969 1.7887 0.89233 5.2476 1.6224 7.6864 1.6224h4.4343l-0.6579 3.8938c-0.3618 2.1416-0.8009 7.2339-0.9758 11.316-0.2129 4.9701-1.0158 8.8669-2.43 11.794-1.1617 2.4043-2.1121 4.4762-2.1121 4.6042 0 0.12799 1.3884 0.53766 3.0854 0.91037 1.7696 0.38868 5.9274 3.3172 9.75 6.8673 3.6655 3.4043 7.9021 6.7255 9.4146 7.3804 3.3053 1.4312 3.564 4.1885 0.6407 6.8286-2.2207 2.0055-7.8712 12.443-7.9182 14.626-0.024 1.1154-3.8707 4.4362-7.7423 6.6838-0.9593 0.55695-0.4863 2.2562 1.9347 6.9504 3.0499 5.9136 3.1571 6.4994 2.2234 12.145-0.7008 4.2374-0.6449 7.071 0.1959 9.9183 1.3621 4.6133 1.1042 5.0806-2.8039 5.0806-1.5875 0-4.55 1.1395-6.5834 2.5322-2.0333 1.3927-6.7344 3.4615-10.447 4.5974l-6.75 2.0652v6.2956c0 4.569-0.3966 6.4478-1.4459 6.8505-0.95 0.36452-1.5503 2.3737-1.75 5.857l-0.3 5.3h-4.5c-3.8606 0-4.544 0.30938-4.81 2.1774-0.98 6.88-33.19 14.05-33.19 7.39 0-1.3942 1.8372-2.3054 8.25-4.0918 13.056-3.6369 13.163-3.7679 5.7956-7.1121-7.21-3.27-8.05-3.42-8.05-1.45 0 1.9944-4.6775 7.3307-9.4642 10.797-2.2197 1.6075-5.7038 4.4655-7.7423 6.3512-4.4243 4.0924-5.2448 4.1956-7.3855 0.92837zm9.8176-7.571c9.1662-6.885 11.158-9.8876 11.18-16.856 0.017-5.407-5.2602-39.205-8.0136-51.323-0.45437-1.9998-0.2384-2.75 0.79168-2.75 1.5377 0 1.487-0.21267 7.3825 31 5.4398 28.8 6.1719 29.536 28.987 29.14l8.04-0.14 1.295-5.25c3.7789-15.32 3.1415-17.577-8.464-29.976-3.2648-3.4881-9.528-10.714-13.918-16.058-4.3902-5.3437-8.3277-9.7158-8.75-9.7158-1.5238 0-0.7042 2.1407 2.7322 7.1363 1.925 2.7985 3.5 5.5987 3.5 6.2227 0 0.62403-1.5327-1.114-3.406-3.8622s-4.7385-6.5718-6.3672-8.4968-3.2763-4.5125-3.6614-5.75c-0.86826-2.7901-3.4949-2.8799-6.8581-0.23442-2.6149 2.0569-6.6004 2.1835-14.421 0.45808-5.55-1.22-15.29 4.5-15.29 8.98 0 2.4942 1.8256 1.7889 3.4373-1.3278 1.41-2.7266 4.2913-4.7259 5.3234-3.6938 0.26097 0.26096-2.1325 3.2076-5.3189 6.5482-4.0239 4.2186-6.0284 5.6934-6.563 4.8284-0.61018-0.98729-1.469-0.9924-4.1453-0.0247-1.8566 0.67135-3.9514 1.2206-4.6551 1.2206s-4.4968 2.844-8.429 6.3199c-3.9323 3.476-8.6645 7.3689-10.516 8.6511-6.9203 4.792-8.7086 13.793-4.9724 25.029 1.1888 3.575 2.3104 7.0901 2.4924 7.8113 1.6804 6.6591 25.363-2.954 30.131-12.23 5.5207-10.741 14.123-30.175 17.079-38.581 4.3216-12.292 9.738-8.7418 5.7848 3.7918-0.81674 2.5895-2.2354 8.2319-3.1526 12.539-1.9882 9.3356-2.7888 9.6862-1.443 0.63203 2.1157-14.235 2.2193-15.475 1.2088-14.463-0.54897 0.55-1.7949 3.25-2.7688 6-0.97386 2.75-3.2352 8.179-5.0253 12.064-12.457 27.039-12.444 31.997 0.10453 40.024 3.0053 1.9224 6.0144 4.3764 6.6868 5.4532 1.7284 2.7676 2.4294 2.5487 9.9672-3.1131zm-6.23-29.38c0-1.4134 0.65333-6.7274 1.4518-11.809 0.79851-5.0816 1.7402-13.289 2.0926-18.239s0.88233-9.225 1.1776-9.5c0.75118-0.69958-0.60366 20.636-1.758 27.684-0.52385 3.1985-0.95505 7.4765-0.95824 9.5065-0.003 2.03-0.45579 3.9691-1.0058 4.309-0.56757 0.35078-1-0.4932-1-1.9518zm7.74-13.55c-1.0576-7.6185-0.79164-21.455 0.38969-20.274 0.51594 0.51594 0.81112 6.5261 0.65595 13.356-0.24041 10.582-0.39503 11.605-1.0456 6.9179zm23.426-1.3771c-1.2-2.68-2.17-5.09-2.17-5.35 0-0.25969-1.6432-3.24-3.6515-6.6229s-4.9333-8.3181-6.5-10.967c-3.02-5.11-3.46-6.68-1.86-6.68 0.54308 0 2.6274 3.2625 4.6318 7.25s4.9245 9.1158 6.4892 11.396c3.0917 4.506 6.2554 12.77 5.6155 14.669-0.21973 0.65179-1.3725-1.0096-2.5617-3.692zm-8.609-3.7298c-1.5131-4.2683-2.7137-7.1302-5.8684-13.989-1.9215-4.1776-3.1703-8.1189-2.775-8.7585 0.41305-0.66832 2.1136 2.3494 3.9987 7.0956 1.804 4.5422 3.983 9.9506 4.8422 12.019 0.85922 2.0681 1.2774 4.045 0.92929 4.3931-0.34811 0.34812-0.85517 0.006-1.1268-0.76019zm-41.56-0.95c0-0.7047 0.63154-1.9917 1.4034-2.86 0.77188-0.86831 3.6969-4.9214 6.5-9.0068 4.9215-7.1729 7.0768-8.8316 3.1872-2.4529-3.65 5.98-11.09 15.59-11.09 14.32zm3.61-11.94c2.1506-4.454 6.3482-10 7.5687-10 1.2988 0-2.0055 5.4538-5.967 9.8483l-3.2917 3.6517 1.69-3.5zm-115.4 60.25c0.83257-0.9625 2.6322-4.225 3.9992-7.25 1.8033-3.9904 4.0267-6.7234 8.1008-9.9571 5.7837-4.5907 6.4564-5.7364 2.661-4.5318-5.3211 1.6888-12.218 10.505-17.79 22.739-0.66189 1.4534 1.5338 0.72848 3.0289-1zm109.16 0.11408c5.1434-0.70498 5.5734-1.4453 2.6577-4.575-1.09-1.17-2.718-4.0548-3.6177-6.4107l-1.6358-4.2834-3.6323 2.8354c-4.065 3.1731-6.7158 4.0016-16.132 5.0419-3.575 0.39496-7.2266 1.0376-8.1146 1.428-1.3219 0.58117-1.9243-0.52395-3.3229-6.0952-0.93957-3.7428-2.4106-8.2862-3.269-10.096-1.1279-2.3786-1.417-5.0812-1.0426-9.7452l0.51805-6.4538-5.1345 0.59207c-3.9275 0.4529-6.3992 0.0905-10.514-1.5415-6.3244-2.5081-6.6836-2.3325-5.4288 2.6538 2.3651 9.399-2.1846 14.414-13.681 15.079-9.9445 0.57568-9.9334 0.66746 0.77192 6.3935 24.979 13.361 48.478 18.343 71.578 15.177zm-41.37-8.94c-5.91-4.2-13.68-7.42-17.88-7.42-4.7472 0-5.9746-1.3992-3.5639-4.063 5.0469-5.5768 29.644 5.886 27.063 12.612-0.74555 1.9429-1.5038 1.7902-5.6196-1.1317zm-32.96-17.457c2.9198-2.9198 3.6874-5.4993 4.9167-16.524 0.60034-5.3839 1.5858-10.384 2.1899-11.112 0.6041-0.7279 0.70576-1.3206 0.22591-1.3171-1.8947 0.0137-4.5106 6.6828-5.0674 12.919-0.67731 7.5868-3.0504 12.974-7.0197 15.934l-2.7854 2.0775 2.75 0.0317c1.5125 0.0174 3.668-0.88629 4.7899-2.0082zm169.46-12.11c3.3-1.717 6.958-3.6089 8.1289-4.2041 1.8532-0.94203 2.2163-2.2722 2.8033-10.27 0.9938-13.539-1.0296-17.576-9.4322-18.818-5.6931-0.84177-11.233-1.9716-22.214-4.5303-4.81-1.12-9.44-2.03-10.32-2.03-3.142 0 1.5495 5.6718 6.6788 8.0742 5.5041 2.578 6.6655 4.5858 1.3736 2.3747-7.3474-3.0699-6.1149-0.57321 1.5179 3.0749 5.2668 2.5173 9.3769 5.4761 7.6069 5.4761-0.3234 0-3.4534-1.575-6.9555-3.5-8.9604-4.9252-11.247-4.6912-6.1544 0.62987 4.2357 4.4252 2.4942 3.8011-5.1414-1.8427-2.8-2.07-7.41-3.14-7.41-1.72 0 0.31145 5.0625 6.1937 11.25 13.072 6.1875 6.878 11.917 13.598 12.732 14.934 2.1509 3.5252 7.8708 3.2602 15.518-0.71889zm-194.5-2.37c0-1.9942-1.2996-3.3618-6.2115-6.5365-3.8984-2.5196-7.888-6.2763-10.713-10.088-2.476-3.3402-4.6748-5.5545-4.8861-4.9206-1.401 4.2031 4.9156 12.242 13.368 17.012 2.9885 1.6866 5.9941 3.964 6.6791 5.0608 1.6007 2.5631 1.7643 2.5142 1.7643-0.52763zm62.819-1.6039c5.63-2.14 24.18-18.6 24.18-21.47 0-1.32-0.43-2.41-0.97-2.41-0.53146 0-0.037-1.575 1.0988-3.5s2.6096-3.5 3.2752-3.5c1.7484 0 5.2071-2.7185 4.4377-3.488-0.35833-0.35834-2.4951 0.28902-4.7484 1.4386-5.6345 2.8745-5.1329 1.9217 1.1531-2.1905 6.6478-4.3488 9.1858-5.3381 8.3927-3.2714-0.84826 2.2105 0.69505 1.8453 3.1214-0.73866 1.8249-1.9435 2.081-3.2995 1.8796-9.9535-0.19535-6.4542 0.0684-7.9617 1.6262-9.2955 2.6031-2.2288 1.8222-4.9778-1.449-5.1008-3.569-0.13418-15.634-9.3918-18.048-13.848-0.58025-1.0713 1.371 0.07874 4.3361 2.5557 14.31 11.957 13.49 9.317-1.61-5.145-21.83-20.914-21.09-20.429-29.97-19.716-6.9277 0.55609-19.766 4.5557-18.936 5.8992 0.30212 0.48885 0.91059 4.4725 1.3521 8.8525 1.1063 10.974 2.1402 12.23 12.763 15.504 4.8375 1.4909 9.509 3.0705 10.381 3.5103 0.872 0.43981 6.722 2.2188 13 3.9533 21.3 5.886 21.91 6.102 21.91 7.76 0 1.7699-20.877 1.2291-28-0.72529-3.5911-0.98539-0.96259-0.89454 17 0.58755 8.8476 0.73001 6.2021-0.72124-7.368-4.042-5.98-1.462-16.25-4.208-22.83-6.102-16.08-4.629-19.12-4.063-21.8 4.057-0.62963 1.9078-2.1247 4.2827-3.3224 5.2775-1.1977 0.99482-3.2402 2.9966-4.5389 4.4485l-2.3612 2.6397 3.7914 3.3171c2.0853 1.8244 5.3576 5.0046 7.2719 7.0671 4.8499 5.2255 8.0724 4.9738 39.918-3.1185 8.94-2.27 17.58-4.13 19.19-4.13 4.4595 0 4.6548 1.8607 0.37237 3.5462-2.1021 0.82735-4.6097 1.9469-5.5724 2.4878-3.107 1.7458-14.937 5.9671-16.619 5.9299-0.89702-0.0198 0.61906-0.84829 3.3691-1.841 11.758-4.2444 14.787-7.1574 4.8946-4.707-44.911 11.125-45.085 11.229-45.487 27.09l-0.22786 8.9944 2.9101 1.4398c8.2295 4.0715 15.018 4.6623 22.229 1.9345zm13.18-45.4c2.475-0.84461 7.65-1.8089 11.5-2.1429 14.948-1.2967 9.7079-2.4347-9-1.9547-12.122 0.31105-17.552 0.16922-15-0.39179 8.4872-1.8658 36.21-1.2108 36.754 0.86832 0.44134 1.6877-0.5589 1.9703-10.633 3.0046-6.1163 0.62791-12.696 1.369-14.621 1.6469-3.139 0.45311-3.0359 0.34684 1-1.0304zm11-17.98c-6.325-2.9832-12.036-5.4411-12.691-5.462-0.65504-0.02091-1.4607-0.47447-1.7904-1.0079-0.72293-1.1697 3.7514 0.38181 16.731 5.8018 5.3625 2.2392 9.75 3.7293 9.75 3.3112 0-0.70771-15.3-9.8253-22.843-13.612-1.8386-0.92312-3.087-1.9343-2.7742-2.2472 0.31282-0.31282 1.1421-0.11163 1.8429 0.4471 0.7008 0.55872 5.9992 3.396 11.774 6.305 14.013 7.0586 16.415 8.7592 14.919 10.562-1.69 2.029-2.27 1.87-14.92-4.098zm11.746 41.087c0.32-0.33-0.63-0.59-2.11-0.59-1.4839 0-2.9571-0.675-3.2736-1.5-0.9109-2.3738-3.3616-1.7662-3.3616 0.83333 0 3.3436 5.8216 4.1784 8.7459 1.2541zm1.8513-4.5718c7.056-15.509 21.278-19.649 37.997-11.062 13.69 7.0318 18.406 8.5957 18.406 6.1039 0-0.40073-5.2875-3.362-11.75-6.5806s-13.1-6.826-14.75-8.0165-3.7875-2.442-4.75-2.781c-1.3946-0.49131-1.7767-1.892-1.8813-6.8979-0.46-21.726-0.87-24.785-3.34-24.785-1.7459 0-1.7947 0.57148-1.6452 19.25 0.0585 7.3078-0.29671 12.75-0.83218 12.75-1.5649 0-24.08 22.149-23.488 23.106 1.0301 1.6667 5.1128 0.92832 6.0314-1.0909zm62.4-1.09c0-2.03-2.08-4.93-3.54-4.93-0.8 0-1.46 0.9-1.46 2s-0.45 2-1 2-1 0.45-1 1 1.575 1 3.5 1 3.5-0.47958 3.5-1.0657zm41.268-7.4703c2.0526-1.3948 3.7322-3.0823 3.7322-3.75 0.0001-0.66767 2.2501-4.7255 5-9.0175 5.107-7.9707 5.8083-9.6965 3.94-9.6965-0.5829 0-3.3954-2.1608-6.25-4.8018-11.1-10.22-12.7-10.384-31.2-3.126-7.15 2.8036-14.397 5.5132-16.105 6.0215-1.7078 0.50824-4.1463 1.8271-5.4189 2.9309-1.4582 1.2647-3.0373 1.7772-4.2702 1.3859-1.2913-0.40984-1.7237-0.24456-1.2721 0.48622 0.76342 1.2352-9.5776 1.63-10.795 0.41213-0.38226-0.38225 3.7052-2.1361 9.0833-3.8975s13.153-4.6373 17.278-6.391 11.325-4.7666 16-6.6954c12.897-5.321 13.59-6.391 14.231-21.984l0.3767-9.1625-6.5538-1.5901c-13.653-3.3126-17.715-1.3456-36.608 17.727-7.67 7.805-15.09 15.765-16.43 17.69l-2.4291 3.5 2.9305-1.9021c1.6118-1.0461 4.6156-3.5211 6.6751-5.5s5.2334-4.4509 7.0531-5.4934l3.31-1.896-3.5 3.757c-4.2818 4.5959-13.778 11.838-16.494 12.578-2.7374 0.74617-3.0492 3.5104-0.62954 5.5821 1.3908 1.1908 1.8503 2.5072 1.4997 4.2955-0.64528 3.291 2.0509 9.7692 4.3572 10.469 0.97184 0.29502 4.917 1.0282 8.767 1.6292 3.85 0.60104 10.6 1.9909 15 3.0887 7.2902 1.8188 28.12 5.455 33.018 5.764 1.1098 0.07 3.6973-1.0139 5.75-2.4088zm-44.3-7.49c-1.925-0.45607-6.7503-1.1367-10.723-1.5126-7.4787-0.70758-11.207-2.7061-7.3386-3.9339 1.124-0.35676 2.5344-0.34535 3.1342 0.02534 0.59979 0.37069 5.8913 0.64237 11.759 0.60373 5.8676-0.03864 12.468 0.29747 14.668 0.74691 2.5879 0.52869-0.0598 0.66344-7.5 0.3817-11.689-0.44264-13.957 0.87175-4 2.318 4.9678 0.72154 9.0284 2.3989 5.5 2.272-1.1-0.0396-3.575-0.4451-5.5-0.90117zm-16.46-7.854c-2.16-0.869 19.07-2.198 31.46-1.969l7.5 0.13845-9.5 0.75693c-19.356 1.5422-27.55 1.8411-29.456 1.0745zm-2.37-8.116c0.18-0.55 0.78-1.1 1.33-1.222 0.55-0.12217 3.2397-1.6972 5.9772-3.5 2.73-1.803 5.36-3.278 5.84-3.278 0.47579 0 2.0092-0.9 3.4077-2 1.3984-1.1 3.2347-2 4.0807-2 0.84594 0-3.016 2.925-8.5822 6.5-9.736 6.2532-12.771 7.6377-12.059 5.5zm-2.1391-2.6684c0.0151-0.45736 1.4776-1.8707 3.25-3.1407 5.35-3.839 25.88-17.191 26.42-17.191 1.418 0-7.1672 6.9124-14.204 11.436-12.766 8.2076-15.502 9.7802-15.472 8.8953zm-25.674-3.7838c3.1328-2.9034 3.14-2.9479 0.90419-5.5592-1.9386-2.2642-12.178-20.99-12.227-22.361-0.0709-1.9732 2.7522 1.6403 4.9538 6.3407 5.3861 11.5 6.4014 3.2235 1.4502-11.821-7.9159-24.053-7.9575-24.1-23.392-26.595-5.7509-0.92945-10.913-1.7715-11.471-1.8712-1.0217-0.18247-2.2376 5.4671-3.2144 14.935-0.85289 8.267 2.1798 12.892 18.692 28.508 7.7793 7.357 15.748 15.064 17.708 17.126 4.2253 4.4463 3.3786 4.2798 6.5963 1.2977zm-8.92-7.298c-5.8-7.2512-6.1936-8.0629-2.061-4.25 4.4635 4.1182 8.1563 9 6.808 9-0.5212 0-2.6574-2.1375-4.747-4.75zm3.0144-1.7541c-3.59-4.027-8.45-11.495-8.45-13.003 0-1.4658 2.2208 1.0104 5.6511 6.3012 2.0348 3.1383 4.5974 6.7167 5.6948 7.952s1.7862 2.4551 1.5306 2.7107c-0.25555 0.25555-2.2448-1.5268-4.4206-3.9609zm27.227 1.7514c1.2-2.061 3.31-5.772 4.68-8.247 1.3698-2.475 3.892-6.075 5.6051-8l3.1147-3.5-2.0698 4c-1.1384 2.2-3.425 6.193-5.0814 8.8734-5.2179 8.4436 2.3948 2.0442 13.633-11.461 2.0197-2.427 4.2664-4.6377 4.9927-4.9127 8.0214-3.0374 12.978-16.646 8.9531-24.581-1.3727-2.7057-2.4977-6.2095-2.5-7.7861-0.004-2.5172-0.27845-2.7795-2.2542-2.1521-1.2375 0.39297-5.5432 1.1211-9.5683 1.618-11.487 1.4181-12.132 2.0952-14.707 15.431-0.74649 3.8664-1.8074 8.2137-2.3575 9.6607-2.9233 7.6888-5.6766 22.273-4.0105 21.243 1.398-0.86401 0.29556 3.0984-1.7743 6.3772-0.80239 1.271-1.312 2.7516-1.1325 3.2902 0.17952 0.53857 3.0054-4.4389 6.2797-11.061 3.27-6.622 6.54-12.04 7.25-12.04 0.77726 0-1.551 5.4155-5.804 13.5-6.3797 12.127-8.7109 19.131-3.2443 9.7473zm-19.5-6.463c-2.69-2.695-4.12-0.283-1.9 3.216l2.22 3.5 0.32818-2.8718c0.1805-1.5795-0.10921-3.3092-0.64378-3.8438zm13.379-1.4793c-1.0281-2.6792-2.5639-0.20182-2.482 4.0039l0.0816 4.191 1.475-3.3815c0.81122-1.8598 1.2277-4.0258 0.92549-4.8134zm-2.56-4.504c0-4.6253-7.4978-7.6724-9.4743-3.8503-2.3933 4.6281-2.0267 6.3138 1.2243 5.6309 1.5125-0.31772 3.4099-0.15422 4.2165 0.36334 1.53 0.984 4.03-0.345 4.03-2.144zm6.96-14.051c6.0812-25.248 5.7666-22.359 3.0029-27.573-1.5959-3.011-3.8451-5.4152-6.3941-6.8348-2.1627-1.2045-4.5396-3.3492-5.2819-4.766-2.0502-3.913-2.8224-3.5641-13.427 6.0658-6.809 6.1831-6.8126 11.147-0.0231 31.821 4.007 12.202 7.12 12.326 5.7466 0.22866-0.47475-4.1817-0.38418-4.7101 0.46551-2.7159 0.86324 2.026 1.2246 2.2077 1.9883 1 0.66703-1.0548 0.9377-0.30754 0.94865 2.6191 0.0104 2.7965 0.64291 4.663 1.9945 5.8861 2.2648 2.0496 2.4462 1.8013 4.0038-5.4811 0.85865-4.0146 0.92073-3.6764 0.57553 3.1358-0.36 7.051 0.36 9.864 2.52 9.864 0.37609 0 2.1199-5.9625 3.8752-13.25zm92.754 151.31c-1.5328-0.50116-4.2979-1.1148-6.1446-1.3637-6.4209-0.8653-7.5226-3.1115-2.0313-4.1417 2.396-0.4495 4.7349-2.0082 7.25-4.8316 11.609-13.032 12.098-13.357 23.102-15.355 13.106-2.3794 12.784-3.2379-1.1387-3.0358l-11.25 0.16329-6.75-4.3892c-3.7125-2.4141-6.75-4.7948-6.75-5.2905 0-0.49568-0.8491-2.1205-1.8869-3.6108-1.4044-2.0166-2.1857-5.9908-3.0552-15.541-0.6786-7.454-1.8489-14.259-2.7923-16.237-0.8932-1.8731-1.3597-3.67-1.0366-3.9932 0.7651-0.7651 8.4696 4.3345 9.1237 6.039 0.2979 0.77636 3.0788 1.5897 6.825 1.9962 12.486 1.3548 13.741 2.0584 22.068 12.377 0.9603 1.19 2.4189 6.022 3.2412 10.738 2.4603 14.108 6.6092 18.754 7.0234 7.8648 0.1345-3.5349 1.3968-9.1874 3.1079-13.917l2.8814-7.9645 7.1313-4.0355c9.3082-5.2673 9.8749-5.7987 12.818-12.021 2.137-4.5173 5.1006-7.4356 6.4274-6.3292 0.2075 0.173 0.4799 3.4646 0.6054 7.3146s0.5779 11.291 1.0053 16.536l0.7772 9.536-4.1971 4.8494c-5.1754 5.9797-5.1213 6.0262 8.677 7.465 6.1848 0.64491 11.922 1.4324 12.75 1.7501 2.5658 0.98458 1.6648-1.0456-1.9968-4.4993-4.4157-4.165-5.1042-6.9424-3.4405-13.878 1.4966-6.2383-0.7416-9.6461-7.1812-10.934-1.9424-0.38848-3.0958-1.351-3.4871-2.91-1.1238-4.4774 0.018-4.6414 6.9-0.99058 3.7067 1.9664 7.0252 3.5753 7.3747 3.5753s0.3455-4.0842-0.01-9.076c-0.6621-9.3267 0.1308-12.924 2.8485-12.924 0.7884 0 1.2042 0.5974 0.924 1.3276-1.3386 3.4882 4.029 10.094 15.349 18.889 11.937 9.2752 14.683 17.307 10.344 30.259-2.3448 6.9993-1.8963 8.1858 1.5209 4.0237 5.1004-6.2124 5.8075-8.4836 5.9149-19 0.1012-9.9001 0.1533-10.106 5.2187-20.574 5.8589-12.108 4.8448-11.385 24.224-17.273 6.325-1.9217 15.775-5.1248 21-7.118 7.5812-2.8921 9.9545-3.4174 11.75-2.6011 3.5139 1.5976 2.7427 3.7315-1.5996 4.4258-7.8802 1.2601-11.25 7.2657-15.63 27.855-3.9092 18.377-10.232 23.83-29.881 25.774l-8.86 0.8764-4.8446 5.3176c-7.0229 7.7086-5.7593 10.319 2.865 5.9194 8.5992-4.387 19.502-3.6428 22.265 1.5196 0.807 1.5078 4.7048 4.2354 9.8837 6.9165 8.6413 4.4735 12.508 8.4769 16.167 16.739 1.8662 4.2137-0.067 5.6027-4.4855 3.2231-3.3629-1.811-22.638-1.2404-36.708 1.0866-5.3805 0.88992-15.611-7.117-18.026-14.109-2.0982-6.0724-3.5051-6.6584-5.3552-2.2304-1.6776 4.015-12.625 9.6044-24.276 12.394-16.324 3.9089-54.155 0.36731-42.765-4.0034 0.825-0.31658 1.5-1.3129 1.5-2.214 0-1.1625 0.5083-1.4334 1.75-0.93286 4.0741 1.6425 8.9724 1.6498 12.786 0.0192 2.1803-0.93233 6.1222-2.3522 8.7597-3.1552 3.5233-1.0727 6.3348-3.038 10.597-7.4078 5.5667-5.7066 10.107-7.7634 10.107-4.5784 0 2.906-8.041 11.407-13.476 14.247-6.7567 3.5305-7.0349 4.8375-0.8314 3.9073 16.511-2.4759 27.491-7.0033 30.29-12.489l2.0807-4.0785-3.7433-4.4781c-3.7136-4.4427-8.3197-6.1507-8.3197-3.0851 0 2.0346-2.2377 2.5683-6.6225 1.5794-29.68-6.694-50.972-1.221-48.394 12.44 2.6178 13.874-20.642 24.07-40.27 17.652zm23.081-9.8047c3.4264-1.5909 6.2059-5.7017 6.2059-9.1786 0-2.8663-1.9893-1.7168-5.3123 3.0698-1.6807 2.4208-4.3927 4.7145-6.7398 5.7-2.1602 0.90702-3.9321 2.0224-3.9377 2.4786-0.013 1.0714 5.5554-0.10659 9.7839-2.0698zm121.34-3.4398c11.825-1.5744 11.214-2.8184-1.3867-2.8265-8.5469-0.005-10.748-0.33672-13.25-1.9934-5.3885-3.5686-8.5357-2.261-4.2495 1.7656 4.601 4.3224 6.7507 4.67 18.886 3.0543zm-121.1-22.36c0-3.5-8.4-13.46-11.4-13.46-0.6885 0-3.3736-1.4054-5.9668-3.1231-2.5933-1.7177-4.9935-2.8446-5.3339-2.5042-1.4896 1.4896 1.9134 5.5402 6.3763 7.5896 8.8734 4.0747 9.4794 4.4485 10.536 6.4981 1.9943 3.8698 5.7941 7.1487 5.7941 4.9997zm86.551-6.1137c-1.2-4.58-11.1-17.35-13.5-17.35-1.9516 0 0.8509 5.1032 5.9352 10.808 2.7411 3.0754 4.9837 6.1392 4.9837 6.8086 0 1.0142 1.1277 1.9236 2.8584 2.3048 0.1971 0.0434 0.059-1.1151-0.3076-2.5746zm-55.861-4.2641c3.0361-3.5902 5.5121-7.7311 6.2954-10.529 2.1576-7.7063-0.7495-7.628-3.3796 0.0909-0.87 2.5533-3.3871 7.0334-5.5936 9.9559s-4.0118 5.5579-4.0118 5.8565c0 1.6813 2.254-0.12961 6.6896-5.3747zm82.926-0.83667c7.0277-4.6883 14.149-15.865 18.928-29.707 3.252-9.4191-4.6753-1.34-8.4522 8.614-2.8094 7.4041-8.6871 16.487-13.038 20.148-5.3281 4.4834-3.663 5.0973 2.5619 0.94454zm-972.96 45.493c-0.99976-0.73104-1.601-2.2812-1.4376-3.7064 0.41177-3.5914-2.2056-3.6187-6.6717-0.0695-13.361 10.618-29.496-8.1587-17.971-20.915 7.9915-8.8456 38.254-1.6105 41.948 10.029 1.1525 3.6311-1.2547 4.7657-3.8037 1.7928-7.174-8.3669-27.756-13.654-32.693-8.3985-3.7329 3.9735-1.6192 5.2736 9.266 5.6993 10.526 0.41163 17.068 3.4394 18.335 8.4854 1.1412 4.5469-3.7056 9.471-6.9716 7.0829zm809.86-8.83c-5.4-2.04-12.5-2.56-12.5-0.91 0 1.3355-3.7064 1.2841-4.5389-0.063-1.8216-2.9473 6.4482-7.9242 13.239-7.9677 5.5778-0.0357 15.657-3.7914 16.029-5.973 1.393-8.1606-14.818-9.032-25.479-1.3696-2.2004 1.5816-2.25 1.5472-2.25-1.5573 0-11.827 27.968-11.575 32.501 0.29376 4.7058 12.322-4.8366 22.17-17.001 17.546zm-650.46-6.0035c-7.9247-3.548-16.522-4.4358-24.735-2.5543-11.881 2.722-15.032-0.28441-5.3026-5.0598 9.4905-4.6583 32.944-0.34567 34.629 6.3676 0.84843 3.3804 0.42872 3.4943-4.5919 1.2465zm302.63-1.3207c-3.3943-8.8454 20.4-22.678 25.951-15.087 2.1267 2.9085 1.8041 3.1726-4.7069 3.8531-7.765 0.8116-11.383 2.9858-13.908 8.3574-2.0923 4.4511-6.1251 6.0322-7.3362 2.8762zm-227.42-3.26c-2.4447-0.9669-1.1837-3.1986 3.5-6.1942 8.2456-5.2738 11.486-9.4152 12.765-16.317 0.74707-4.0304 4.7121-3.8275 6.0247 0.30818 2.2184 6.9896-15.679 24.818-22.29 22.203zm314-5.9122c-5.1138-2.2364-3.947-3.0093 6.4759-4.2902 11.436-1.4054 21.376-4.7584 28.889-9.7453 7.122-4.7273 11.898-2.9232 6.1352 2.3176-6.8452 6.2254-17.005 10.337-30.284 12.256-8.1963 1.1845-7.1635 1.2341-11.216-0.53812zm-308.2-39.35c-2.4299-3.4125-5.4595-4.1696-25.651-6.41-35.341-3.9213-29.493-25.253 6.8282-24.908 8.0988 0.0769 14.963-0.24467 15.253-0.71464 1.0761-1.7412-0.71355-3.8238-5.2825-6.1471-6.642-3.3774-6.5598-6.2269 0.18324-6.3536 4.4034-0.08276 4.9683 0.16405 5.7935 2.5311 0.50288 1.4426 2.2448 3.6065 3.8708 4.8087 9.3485 6.9116 1.4762 11.456-20.043 11.57-18.381 0.0977-24.576 2.8734-21.064 9.4366 1.2489 2.3337 2.3718 2.6028 21.064 5.0485 15.625 2.0445 17.07 2.4048 21.25 5.3013 2.0957 1.452 2.75 2.722 2.75 5.3373 0 4.3252-2.0786 4.5347-4.9522 0.49909zm-332.05-0.65c-2.475-1.2697-8.55-3.2508-13.5-4.4022-19.273-4.4833-22.327-5.8478-25.102-11.216-5.2349-10.123 4.8869-16.789 25.534-16.816 13.956-0.01803 21.162-2.6662 12.318-4.5269-6.7193-1.4138-7.5534-3.6394-1.75-4.6694 2.2-0.39046 5.4052-0.99562 7.1226-1.3448 2.9147-0.59261 3.1691-0.41218 3.8216 2.7099 2.501 11.968 0.25667 13.841-16.589 13.843-29.023 0.004-32.76 11.89-4.7656 15.158 14.34 1.674 24.355 7.4854 20.41 11.844-2.118 2.3404-1.7522 2.3687-7.5-0.5801zm974.83-5.5162c-34.001-5.2048-33.86-27.58 0.1788-28.354 17.457-0.39713 18.95-1.4532 12.237-8.6506-3.7513-4.0216-3.7595-4.0245-14.25-5.0243-18.706-1.7828-28.254-5.6795-37.496-15.303-2.75-2.8633-6.2864-6.1058-7.8586-7.2055-1.7484-1.2229-2.7193-2.6898-2.5-3.7769 0.3123-1.548 0.8605-1.378 4.2461 1.3168 4.5394 3.6132 9.3512 4.3431 7.6477 1.1601-3.7256-6.9613-0.5398-13.7 17.44-36.888 0.5638-0.72725 3.7252-4.1202 7.0252-7.5398s7.4879-8.1121 9.3065-10.428c3.8899-4.9531 4.6695-5.1266 6.5603-1.4602 1.6285 3.158 1.4342 3.778-9.284 29.615-4.2504 10.246-6.4374 17.022-7.0384 21.809l-0.872 6.9443 3.8015 5.6909c4.5735 6.8467 10.906 12.479 16.276 14.477 2.6732 0.99457 2.2268 0.35069-4.2409-6.117-8.4825-8.4825-10.066-15.371-6.4816-28.201 0.8401-3.0074 3.0587-11.318 4.9301-18.468 6.7196-25.673 6.811-25.877 11.689-26.122 2.8485-0.14326 3.2876 0.30532 5.857 5.9838 11.492 25.398 14.705 49.606 8.3115 62.621-4.8264 9.8245-2.2047 8.5895 5.2166-2.4573 1.1177-1.6637 3.7052-4.1128 5.75-5.4424 6.2281-4.0498 4.0875-12.664-10.409-41.889-8.7591-17.658-9.0184-18.375-7.3218-20.25 2.664-2.9437 5.1565-2.3661 7.796 1.8064 1.3047 2.0625 5.3013 6.9 8.8815 10.75 3.5801 3.85 9.0608 10.15 12.179 14 3.1186 3.85 7.2291 8.7393 9.1344 10.865 4.3479 4.8511 6.3419 11.336 5.3867 17.519-0.8763 5.6716-0.968 5.5787 3.4345 3.4792 7.7957-3.7175 5.1808 1.2259-5.141 9.7189-8.1194 6.6809-18.592 11.214-30.723 13.298l-7 1.2026v6.832c0 10.021-1.4186 10.883-19.322 11.741-19.54 0.93715-22.632 2.3905-19.105 8.9802 2.8864 5.3933 6.6948 7.0057 22.132 9.37 2.5255 0.38681 3.5423 0.98997 3.195 1.8952-0.864 2.2516-4.6827 3.2503-9.5686 2.5023zm2.7-62.9c0.4918-0.825 2.3885-3.3463 4.2149-5.603 1.8912-2.3368 3.3207-5.2425 3.3207-6.75 0-1.456 0.4-2.647 1-2.647 0.55 0 1 0.42115 1 0.93588s2.0356 3.7772 4.5236 7.25c2.4879 3.4728 5.0616 7.5516 5.7192 9.0641 1.5522 3.5701 2.3626 3.4731 3.1322-0.375 1.8421-9.2106-1.861-32.494-7.376-46.378-1.6495-4.1522-2.999-8.4112-2.999-9.4644 0-3.8931-6.3765-3.6315-7.3169 0.30015-2.2008 9.2016-7.9305 30.779-10.135 38.167-3.0934 10.367-2.8691 16.84 0.7598 21.927l2.192 3.073 0.5351-4c0.2943-2.2 0.9375-4.675 1.4294-5.5zm55.563-2.0519c3.4-6.555-0.7-15.712-13.9-30.448-2.4-2.75-8.2-10.062-12.9-16.25-7.7-10.416-10.3-12.665-11.7-10.352-0.6 0.8916 6.3 14.678 13.4 27.102 3.4762 6.0261 9.972 25.018 9.972 29.156 0 3.849 13.024 4.5358 15.028 0.79242zm-80.278-1.513 5.25-0.68956v-3.7615c0-3.255 11.5-33.199 14-36.484 0.8-1.098 4-10.363 4-11.678 0-2.4401-3.498-0.051234-8.6654 5.9178-3.209 3.7068-6.2846 7.2274-6.8346 7.8236-0.55 0.59618-2.4614 3.0758-4.2476 5.5104-1.7861 2.4345-5.5394 7.5416-8.3406 11.349-10.807 14.689-12.5 24.475-4.0197 23.231 1.9843-0.29103 5.9704-0.83945 8.8579-1.2187zm-974.3 27.175c-17.192-4.312-40.248-20.354-36.942-25.703 0.32374-0.52382 1.843-0.0459 3.4171 1.0749 3.6985 2.6336 4.1768 2.5464 3.0007-0.547-1.631-4.289-1.11-7.51 1.774-10.969 1.512-1.814 4.057-5.474 5.655-8.132 5.985-9.957 9.938-15.88 11.57-17.334 0.925-0.825 4.765-5.756 8.535-10.959 10.32-14.248 13.63-16.99 16.43-13.61 2.96 3.5606 0.56 10.69-10.6 31.569-12.204 22.823-13.553 29.028-7.802 35.863 1.2411 1.475 3.2327 4.5545 4.4257 6.8433 2.0352 3.9046 8.2418 10.3 12.602 12.985 3.1827 1.96-1.6805 1.5244-12.066-1.0808zm-15.556-21.691 5.043-1.082-0.123-5.331c-0.10956-4.7526 0.56599-6.6159 6.2246-17.169 10.001-18.644 17.011-33.371 16.371-34.396-1.38-2.2367-3.76-0.432-9.62 7.309-3.44 4.538-8.978 11.444-12.3 15.347-3.322 3.904-7.615 9.704-9.54 12.889-1.925 3.1851-4.7375 7.3657-6.25 9.2902-7.4308 9.4548-2.4645 15.857 10.194 13.143zm27.106 18.632c-4.8221-4.8827-5.3655-5.8651-5.2251-9.4467 0.0862-2.1985-0.24398-4.2449-0.73361-4.5475-4.02-2.487-3.4-12.766 1.93-31.557 8.98-31.73 10.27-34.927 12.75-31.691 4.37 5.712 16.33 52.775 14.34 56.477-0.5 0.943-1.24 3.964-1.64 6.714-0.82 5.627-3.34 11.222-6.11 13.578-1.62 1.371-9.07 5.922-9.7 5.922-0.12485 0-2.6488-2.4523-5.6088-5.4494zm1.9333-21.767c2.2843-2.869 4.4057-6.4784 4.7142-8.0208 0.77759-3.888 2.1256-4.3856 2.8545-1.0537 1.5231 6.9618 7.0306 14.923 9.7132 14.041 1.9115-0.62846 2.0348-8.3516 0.25835-16.171-9.04-39.79-12-46.639-15.18-35.08-11.09 40.352-11.366 41.698-9.9085 48.25 1.0072 4.5264 2.7366 4.0759 7.5475-1.9664zm325.3 19.296c-3.7928-3.6176-5.3449-5.9339-5.863-8.75-0.38756-2.1065-1.8182-5.1655-3.1791-6.7979-4.32-5.176-2.12-16.894 7.6-40.532 1.696-4.125 3.5442-9.3 4.1072-11.5 3.2197-12.582 5.9155-8.9389 12.652 17.098 8.2308 31.814 8.2982 43.357 0.29309 50.185-7.6553 6.5304-9.0472 6.5568-15.611 0.29665zm-0.17-20.33c2.2852-2.8875 4.6179-6.2625 5.1838-7.5 1.3774-3.0121 2.2226-2.8358 3.7186 0.77595 4.007 9.6739 11.42 8.2135 8.6885-1.7115-0.88-3.198-3-13.464-4.7-22.813-4.34-23.835-4.55-23.869-12.57-2.126-7.9431 21.521-10.105 30.985-8.0577 35.278 2.1198 4.4453 2.856 4.2643 7.7368-1.903zm12.89 24.466c0-0.43142 1.3502-1.582 3.0005-2.5568 15.986-9.4431 17.438-22.523 5.4269-48.87-2.44-5.342-4.43-10.202-4.43-10.8 0-0.599-0.75-2.528-1.66-4.289-5.11-9.8454-5.55-20.089-0.6-13.95 3.5092 4.355 8.043 10.446 10.625 14.273 1.307 1.9378 5.8197 7.2738 10.028 11.858 15.471 16.851 19.725 23.627 18.861 30.041-0.41819 3.1032-0.29124 3.3558 1.1043 2.1976 3.4298-2.8465 3.7361-0.39384 0.48903 3.9154-8.32 11.041-42.85 25.691-42.85 18.181zm37-20.721c3.15-3.787-1.07-13.444-10.54-24.167-7.47-8.458-17.09-20.465-21.34-26.648-5.9046-8.5858-2.0562 2.295 9.7208 27.484 3.7961 8.1194 6.3371 18.631 5.0741 20.991-1.3028 2.4342-1.1878 2.619 1.3329 2.1417 1.2375-0.23433 3.375 0.02455 4.75 0.57528 3.8077 1.5251 9.5902 1.3268 11.004-0.37731zm-359.51 19.518c0.33553-0.54288 2.549-2.3211 4.9188-3.9516 3.0632-2.1076 5.2114-4.7852 7.4313-9.2629l3.12-6.299-3.84-10.5c-2.1153-5.775-4.9994-13.309-6.4091-16.742-1.4097-3.4332-3.3078-8.8037-4.2179-11.934-0.91011-3.1307-2.5062-7.5217-3.5469-9.7578-5.2-11.162-5.53-15.566-1.17-15.566 1.72 0 11.22 9.331 11.22 11.014 0 0.59042 1.5912 2.7932 3.5359 4.8951 1.9448 2.1019 5.5265 6.6948 7.9594 10.206 10.152 14.653 17.374 25.708 19.439 29.757 1.9 3.7242 2.5308 4.2282 4.6324 3.7007 3.0124-0.75606 3.0158-0.44348 0.0457 4.1973-6.5998 10.312-16.626 17.193-28.886 19.824-7.4546 1.5995-15.103 1.8248-14.234 0.41919zm38.51-21.263c-0.007-2.0611-17.713-28.839-20.006-30.256-0.58166-0.35948-4.5835-5.9051-8.8929-12.324-12.06-17.956-16.32-20.48-10.43-6.17 1.9253 4.675 4.317 11.2 5.3148 14.5 0.99789 3.3 2.92 8.475 4.2713 11.5s3.2363 7.975 4.1889 11c3.188 10.124 4.2799 11.837 7.8236 12.278 8.0029 0.99529 17.732 0.70557 17.728-0.52791zm256 21.21c-11.982-2.1434-25.329-10.146-32.415-19.437-3.2273-4.2312-3.2371-4.9035-0.06-4.1061 2.2746 0.5709 2.4655 0.39505 1.9219-1.7708-1.3576-5.4089 5.6674-15.237 25.053-35.051 6.6-6.7459 13.725-14.139 15.834-16.43 4.248-4.6142 4.8508-4.8517 6.6898-2.6357 1.0455 1.2597 0.76992 2.8012-1.564 8.75-1.5582 3.9715-2.7991 7.4459-2.7576 7.7209s-3.9246 8.4498-8.8136 18.166c-10.02 19.915-10.272 21.101-5.456 25.769 1.8882 1.8301 3.9834 4.7309 4.656 6.4462 1.43 3.654 7.74 10.619 9.61 10.619 2.5806 0 1.2222 1.765-1.828 2.375-3.6144 0.72287-4.7567 0.67925-10.875-0.41523zm-12.75-22.624c3.2911-1.0374 4.75-2.0357 4.75-3.2504 0-0.96426 5.1725-12.066 11.494-24.67 13.58-27.057 14.11-28.903 6.37-21.909-4.17 3.768-19.49 20.503-26.99 29.493-15.81 18.923-14.24 26.204 4.38 20.336zm368.46 20.066c-9.7514-6.3836-10.318-17.897-1.148-23.307 2.0002-1.1802 3.8692-3.0343 4.1532-4.1203 0.6753-2.5823 1.6596-2.4969 3.1749 0.27544 0.67634 1.2375 3.2331 3.7694 5.6817 5.6266 8.5158 6.4587 6.8572 12.898-5.8915 22.873-1.9421 1.5196-1.4053 1.6408-5.9703-1.3476zm11.831-0.2653c7.7167-4.7058 12.948-16.354 9.9492-22.153-2.09-4.04-9.07-23.348-10.47-28.984-5.51-22.051-7.48-23.521-10.62-7.952-2.0816 10.314-8.2095 28.811-11.926 35.998-2.1431 4.1444-1.2319 12.215 1.9164 16.972 4.4 6.6489 3.822 6.9465-8.7994 4.5317-10.25-1.962-16.19-4.759-21.79-10.26-6.25-6.141-11.98-20.002-6.32-15.31 1.25 1.044 1.52 0.984 1.52-0.349 0-0.88759 1.4625-3.553 3.25-5.9233 1.7875-2.3702 4.15-5.6366 5.25-7.2587s5.6-6.5618 10-10.977c9.03-9.062 12.21-12.601 18.4-20.472 13.341-16.971 11.09-1.768-4.3487 29.374-9.443 19.047-9.6139 19.732-5.6273 22.571 2.5825 1.8389 3.0775 1.9331 3.0775 0.58556 0-0.88319 1.6137-5.7513 3.5861-10.818 1.97-5.067 4.89-13.713 6.49-19.213 7.05-24.267 7.18-24.608 9.19-24.295 1.93 0.3016 6.62 10.988 10.65 24.295 6.67 21.95 10.82 29.5 16.23 29.5 4.3535 0 5.2852-5.0588 1.3384-7.2675-5.7759-3.2324-26.526-45.124-24.311-49.081 2.1004-3.7531 6.7197-0.75059 12.075 7.8484 1.37 2.2 3.4493 4.8572 4.6206 5.905 1.1713 1.0477 2.1297 2.4535 2.1297 3.1238 0 0.67037 2.3625 3.9538 5.25 7.2964 21.204 24.546 22.05 26.449 16.389 36.866-5.6395 10.377-9.8409 12.648-30.073 16.252-9.126 1.6257-10.713 1.4436-7.0237-0.80591zm35.523-21.172c3.07-1.64 2.29-5.355-2.31-11.023-11.03-13.597-18.35-23.244-24.43-32.192-6.78-9.9852-11.44-13.334-9.87-7.107 1.8588 7.4061 16.963 34.495 23.137 41.495 1.7646 2.0007 3.516 5.0382 3.892 6.75 0.74309 3.3833 5.3041 4.3712 9.5904 2.0772zm-70.48-5.715c3.1539-8.0033 7.1766-16.314 14.744-30.46 4.3281-8.0903 7.7076-15.195 7.5098-15.788-0.29-0.8778-28.44 29.301-33.83 36.275-0.825 1.0668-2.7375 3.4127-4.25 5.2132-5.4332 6.4675-3.8904 8.3122 7.051 8.4305l7.3 0.079 1.4778-3.75z"/>
</svg>
